<?xml version="1.0" encoding="utf-8"?>
<svg xmlns="http://www.w3.org/2000/svg" x="0px" y="0px" width="250px" height="250px">
<path fill="#003764" d="M5.2,124.9C5.2,58.7,58.8,5.1,125,5.1c66.2,0,119.8,53.6,119.8,119.8c0,66.2-53.6,119.8-119.8,119.8
	C58.8,244.7,5.2,191.1,5.2,124.9 M125,218.3c51.6,0,93.4-41.8,93.4-93.4c0-51.6-41.8-93.4-93.4-93.4c-51.6,0-93.4,41.8-93.4,93.4
	C31.5,176.5,73.4,218.3,125,218.3 M125,249.5C56.4,249.5,0.5,193.6,0.5,125C0.5,56.4,56.4,0.5,125,0.5
	c68.7,0,124.5,55.9,124.5,124.5C249.5,193.6,193.6,249.5,125,249.5z M125,2.6C57.5,2.6,2.6,57.5,2.6,125
	c0,67.5,54.9,122.4,122.4,122.4c67.5,0,122.4-54.9,122.4-122.4C247.4,57.5,192.5,2.6,125,2.6z"/>
<path fill="#FEC24D" d="M168.8,74c0.6,0.1,0.5,0.7,0.6,1.1c0.1,6,0.5,11.9,0.1,18l0.1,0.6c-0.5,8.3-1.1,15.5-2.4,23.4
	c-0.2,2.4-1.2,4.5-1.4,7c-1.1,4.2-2.1,8.7-3.3,12.9c-1.5,5.2-3.5,10.3-5.5,14.9c-2.3,7-5.4,13.4-9.1,19.7c-4,6.5-8.3,12.2-13.6,17.6
	c-1.4,1.2-2.6,2.7-4.1,3.7c-0.1,0.1-0.1,0.3,0.1,0.3c0.3-0.1,0.5,0.3,0.8,0.1c3.7,0,7.2-1.2,10.5-2.6c5.4-2.2,9.7-6.1,13.2-10.9
	c2.3-3.4,4.3-7.3,5.7-11.4c1.9-5.9,3.3-12.3,5.6-18c1.2-3.3,3.9-6.1,7.8-6.2l0.3-0.4c0-5-0.7-10-1.4-14.8
	c-0.9-5.7-1.8-11.6-2.5-17.4c-0.3-3.9-0.1-8.2,1.1-11.6c0.8-3,2.3-5.8,4-8.3c0.9-1,2.1-1.9,3.8-1.4c2.3,1,4.8,1.7,7.4,2.1
	c2,0.8,2.8,2.5,2.7,4.7c-0.1,0.5-0.3,1.1-0.1,1.4c0.8,0.3,2.1,0.1,2.2,1c-1.7,2.5-1.2,6.7-4.6,7.6c-1.4,0.3-2.9-0.1-4.2,0.2
	c-0.5,1.7-0.1,3.7-0.1,5.5c1,6.5,2.1,13,3,19.3c0.6,4.6,1,9.3,0.1,14c-0.8,3.8-1.9,7.8-5.2,9.7c-1.2,0.6-2.3-0.1-3.4-0.3
	c-0.4,0.3-0.4,1-0.6,1.4c-1.7,5.6-3.3,11.4-5.4,16.7c-2.5,5.4-4.2,10.9-8.3,15.1c-5.7,7.2-13.7,11.8-22.9,14.2
	c-2,0.2-3.7,0.8-5.7,1.1c-1.2,1.2-2.1,2.5-3.9,3c-4.9,1.7-10.5,1.8-14.7-0.9c-0.9-0.7-1.4-1.5-2-2.4c-2.5-0.3-4.5-0.7-7-1.1
	c-11-2.3-18.2-11.2-24.1-19.6c-3.3-5.4-5.9-11.4-7.6-17.8c-0.8-2.5-0.7-6.2,1.4-8.1c0.4-0.6,1.6-0.6,1.7-1.4
	c0.1-1.8-2.1-0.8-3.1-1.3c-5.2-1.2-7-6.7-7.9-11.4c-0.9-4.6-0.7-9.5-0.8-14.4c0.2-7.5,0.6-14.9,0.5-22.6l-0.2-1.2l-0.4,0.1
	c-0.8,0.9-1.9,1.7-3.2,2.1c-0.5,0.1-0.5-0.3-0.5-0.6c0.8-4.6-0.6-8.9-1.7-13c-0.2-1-0.1-2.3,0.5-3.1c1.6-1.6,3.9-0.1,5.9-0.1
	c3,0.8,6.1-1.5,8.4,0.8c3,2.8,2.8,7.3,3.3,11.4c0.6,10.2-0.6,20.4-0.9,30.5c0.1,5.7,0.8,10.9,3,15.6c0.3,0.3,0.5,0.8,0.9,0.8
	c1.7-0.7,3.3-1.4,5.1-0.3c2.2,1.6,3.4,4.5,2.6,7.4c-0.7,1.7-1.8,3.2-3.8,3.5c-0.1,1.2,0.4,2.3,0.6,3.5c3.3,9.7,8.1,18.6,16.5,24.5
	c3.6,2.5,7.6,4.4,12.5,4.7c0.6,0,1.4,0.1,1.8-0.3c-2.1-2.3-4.8-4.3-6.6-6.8c-6.2-6.3-10.3-14.4-14.7-22.2c-3.9-9-7.6-18.2-10.1-28.3
	c-1.5-6.5-3-12.9-3.5-19.9c-1.2-8.1-1.7-16.8-2.1-25.3c-0.3-5.4,0.2-10.8,0.3-16.2l0.2-0.2 M127.6,39.9c-0.8-0.8-2-1.2-3.4-1.2
	c-1.3,0.3-2.7-0.8-3.6,0.3c-1,0.6-0.6,1.9-0.4,2.9c-1,1.2-2.5,0.5-3.4,2c-2.4,1-3.7,3.6-5.4,5.4c-1.2,1.7-2.9,4.5-1.2,6.7
	c1.5,2.3,3.9,3.5,5.6,5.4c0.7,0.8,1.8,1.4,2.3,2.4c-0.9,0.2-1.5,0.8-2.3,1c-1-0.3-1.9-0.8-3-1c-1.3-0.3-2.8,0.1-3.7,0.6
	c-1.3-0.5-3.2-0.8-4.5,0c-0.8,0.4-1.2,1.2-1.4,2c-0.3,1.4,0.5,2.4,1.4,3.2c2.1,1.9,5.5,0.8,7.7-0.2c1.9,1,4.6,1.1,6.7,0.4
	c1.1,0,1.6,0.6,2.6,0.7c1.4,0.3,3-0.3,4.1-1c1.9,1.1,4.8,1.7,6.9,0.6c0.9-1,1.6,0.3,2.5,0.3c1.3,0.3,2.6,0.3,3.9-0.1
	c1.1-0.7,2.1,0.3,3.2,0.3c0.7,0,1.2-0.3,1.7-0.7c0.5-0.3,0.4-1.4,1.2-0.8c1.5,0.9,2.1,3.1,4.2,3.1c0.2-0.5,0.4-1.1,0.3-1.7
	c-0.4-4-2.1-7.3-4.9-9.7c-5-4.8-10.2-10.2-14.6-15.3l-0.1-0.6C129,43.4,129.3,41,127.6,39.9 M125.1,51.4c3.3,1.4,5,4.8,7.8,6.9
	c1.4,1.6,2.7,3.2,4.1,4.6c-1,0.3-1.7-0.3-2.5-0.5l-1.8-0.1c-0.3-2.8-1.7-4.7-4.1-5.8c-2.1-1.3-5.5-0.8-7.1-2.9
	C121.7,52,123.8,51.8,125.1,51.4"/>
<path fill="#FEC24D" d="M15.6,149.8c-1.4,0.2-1.3,1-1.2,1.8l0,0.2l-0.6,0.1c-0.1-0.8-0.3-1.9-0.5-3.1c-0.2-1.2-0.5-2.1-0.6-2.9
	l0.6-0.1l0,0.2c0.1,0.8,0.3,1.6,1.7,1.3l6.8-1.2c2.5-0.4,4.1-1.7,3.6-4.5c-0.5-2.6-2.3-3.4-5-3l-6.7,1.2c-1.4,0.2-1.3,1-1.2,1.7
	l0.1,0.4l-0.6,0.1c-0.1-0.8-0.2-1.6-0.3-2.4c-0.1-0.8-0.3-1.5-0.5-2.3l0.6-0.1l0.1,0.4c0.1,0.5,0.2,1.3,1.7,1l6.3-1.1
	c4.4-0.8,6.1,1.4,6.6,4.3c0.7,3.8-0.4,6.1-3.9,6.7L15.6,149.8z M11,129.9c0,0.6,0.1,1.2,0.1,1.8c0,0.8-0.1,1.5,0,2.3l0.6,0l0-0.3
	c0-0.9,0.7-1.8,1.8-1.8l8.4-0.1c1.6,0,2.5,0.4,2.6,1.8l0,0.3l0.6,0c0-0.9-0.1-1.8-0.1-2.7c0-0.9,0.1-1.7,0-2.6l-0.6,0l0,0.3
	c0,1.5-0.6,1.9-2.3,1.9l-8.2,0.1l11.3-10.5l0-0.8c-0.6,0.1-1.3,0.1-2,0.2l-9.1,0.1c-2.4,0-2.6-0.9-2.6-1.7l0-0.3l-0.6,0
	c0,0.8,0.1,1.6,0.1,2.5c0,0.9,0,1.9,0,2.8l0.6,0l0-0.4c0-0.6,0.2-1.7,1.8-1.8l7.5-0.1l0,0L11,129.9z M25.2,116.2
	c0.1-0.8,0.1-2,0.3-2.9c0.1-1,0.3-2.2,0.4-3.1l-0.6-0.1l0,0.3c-0.1,0.7-0.3,1.5-1.3,1.3l-10.4-1.2c-1-0.1-1-0.9-1-1.6l0-0.3
	l-0.6-0.1c-0.1,0.9-0.2,2.1-0.3,3.1c-0.1,1-0.3,2.2-0.4,2.9l0.6,0.1l0-0.3c0.1-0.7,0.3-1.5,1.3-1.3l10.4,1.2c1,0.1,1,0.9,1,1.6
	l0,0.3L25.2,116.2z M13.8,99.5c-0.1,0.6-0.4,1.9-0.6,2.9c-0.2,1-0.6,2-0.8,3l0.6,0.1l0-0.2c0.2-0.9,0.5-1.2,1.5-1.4l13.3-2l0.2-0.7
	c-0.6-0.4-1.2-0.8-1.7-1.3c-2.9-2-9.4-6.6-9.7-6.8c-0.5-0.5-0.5-0.8-0.4-1.2l0-0.2l-0.6-0.1c-0.1,0.6-0.2,1.2-0.3,1.8
	c-0.2,0.8-0.5,1.6-0.6,2.2l0.6,0.1l0.1-0.3c0.2-0.7,0.4-1.2,0.9-1.1c0.1,0,0.5,0.1,1,0.5l7.3,5l0,0l-9.4,1.3c-0.3,0-0.6,0.1-0.7,0
	c-0.3-0.1-0.5-0.4-0.3-1.1l0.1-0.4L13.8,99.5z M29.7,93.6c0.4-1.1,1.2-3.3,1.9-5c0.7-1.7,1.6-3.8,2-5c-0.9-0.6-1.8-1.2-2.7-1.8
	l-0.3,0.5c1.9,1.4,1.7,2.4,0.8,4.7c-0.5,1.2-0.9,2.3-2.1,1.8l-4.3-1.7l0.9-2.2c0.5-1.3,1.3-1.1,2.4-0.7l0.1-0.6
	c-0.7-0.2-1.4-0.5-2.1-0.8c-0.7-0.3-1.4-0.6-2.2-0.9l-0.2,0.6c1,0.5,1.5,1,1.1,2.1L24,86.7l-4.9-1.9l1-2.6c0.8-1.9,1.8-1.8,3.1-1.4
	l0.1-0.6c-0.8-0.3-2.1-0.7-2.9-1.1c-0.5,1.3-1.2,3.2-1.8,4.8c-0.6,1.6-1.5,3.5-1.9,4.6l0.6,0.2l0.1-0.3c0.3-0.7,0.6-1.3,1.6-1
	l9.7,3.8c1,0.4,0.8,1.1,0.5,1.8l-0.1,0.3L29.7,93.6z M34,79.1c0.6,0.4,0.6,1.1,0.2,1.8L34,81.2l0.5,0.3c0.5-0.9,0.9-1.7,1.4-2.6
	c0.6-1,1.2-2,1.8-2.9l-0.5-0.3L37,76c-0.5,0.8-0.9,1.4-2.2,0.6l-3.7-2.1l0.7-1.1c2.6,0,5.2-0.1,7.7-0.4c0.3-0.5,0.6-1.1,0.9-1.7
	c0.3-0.6,0.7-1.1,1-1.7l-0.5-0.3c-0.6,0.8-1,1-2,1.1l-6.1,0.4c0.2-1.7-0.1-3.3-1.7-4.2c-2.5-1.4-4.2,0.2-5.4,2.4
	C25,70,24.6,70.9,24,71.9c-0.6,1.1-1.3,2.1-1.6,2.7l0.5,0.3l0.2-0.3c0.3-0.5,0.8-1.2,2-0.5L34,79.1z M25.3,71.2
	c0.1-0.3,0.2-0.5,0.5-1c0.9-1.5,2.4-2,4-1.1c2,1.2,2.2,2.5,1.2,4.2l-0.5,0.8L25.3,71.2z M38.4,55.1c-0.8-0.5-1.6-1-2.4-1.6
	c-0.4,0.4-1.6,1.7-2,2.1c-1.6,2.1-1.4,4.4,0.6,6c3.8,2.9,6.5-2.4,9.3-0.3c1.1,0.9,1.2,2.3,0.3,3.3c-1.1,1.5-2.9,1.4-4.4,0.6
	l-0.2,0.5c0.9,0.5,1.8,1,2.6,1.6c1-0.5,2-1.1,2.6-2c1.5-2,1.8-4.7-0.4-6.4c-3.8-2.9-6.6,2.5-9.3,0.5c-1.3-1-1.5-2.2-0.5-3.5
	c0.8-1.1,2.3-1,3.4-0.3L38.4,55.1z M49.4,59.3c0.5-0.6,1.3-1.5,1.9-2.2c0.7-0.7,1.6-1.6,2.2-2.3l-0.4-0.4l-0.2,0.2
	c-0.5,0.5-1.1,1-1.8,0.3l-7.7-7.1c-0.8-0.7-0.3-1.3,0.2-1.9l0.2-0.2l-0.4-0.4c-0.6,0.7-1.4,1.6-2.1,2.4c-0.7,0.7-1.5,1.5-2.1,2.1
	l0.4,0.4l0.2-0.2c0.5-0.5,1.1-1,1.8-0.3l7.7,7.1c0.8,0.7,0.3,1.3-0.2,1.9l-0.2,0.2L49.4,59.3z M50.6,39.9l6.9,8.1
	c1,1.2,0.7,1.6-0.2,2.4L57,50.6l0.4,0.5c0.6-0.5,1.6-1.5,2.5-2.3c0.8-0.7,1.9-1.5,2.5-2.1l-0.4-0.5l-0.3,0.2
	c-0.7,0.6-1.4,0.9-2.4-0.2l-6.9-8.1l2.5-2.1c1-0.9,1.9,0,2.4,0.5l0.3-0.6c-0.3-0.4-0.7-0.8-1-1.3c-0.3-0.4-0.6-0.9-0.9-1.4l-0.4,0.3
	c0.4,0.5,0,0.8-0.4,1.2l-7.8,6.7c-0.4,0.4-0.8,0.7-1.3,0.3l-0.4,0.3c0.4,0.4,0.7,0.9,1,1.4c0.3,0.5,0.6,1,0.9,1.4l0.5-0.4
	c-0.7-1.3-0.9-1.6,0.2-2.6L50.6,39.9z M70.1,38.7c0.7,1.1,0.5,1.6-0.5,2.3l-0.3,0.2l0.3,0.5c1-0.6,2-1.3,2.8-1.9
	c0.7-0.5,1.8-1,2.8-1.7l-0.3-0.5l-0.3,0.2c-0.9,0.6-1.5,0.8-2.4-0.6l-2.5-4.1l0.4-6.4c0-0.5,0.3-1.2,0.8-1.6l-0.3-0.5
	c-0.5,0.3-1,0.7-1.6,1.1c-0.6,0.4-1.3,0.7-2,1.1l0.3,0.5l0.3-0.2c0.2-0.1,1-0.6,1.2-0.2c0.2,0.3,0.2,0.7,0.2,1.4l-0.2,4.3l-4.8-2
	c-0.2-0.1-0.5-0.2-0.7-0.4c-0.2-0.3,0.2-0.7,0.6-0.9l0.2-0.1l-0.3-0.5c-0.8,0.5-1.6,1.1-2.5,1.6c-0.9,0.6-1.8,1-2.7,1.6l0.3,0.5
	l0.2-0.1c0.8-0.5,1.4-0.3,2.3,0.1l6.3,2.5L70.1,38.7z M88.5,16.7c-3.9,1.3-6,5.4-4.7,9.3c1.4,4.1,5.3,5.8,9.4,4.4
	c4-1.3,6.2-5.3,4.7-9.6C96.6,16.8,92.6,15.4,88.5,16.7 M93.1,29.6c-3.1,1-5.7-1.7-6.8-5.1c-0.8-2.5-0.8-5.8,2.5-6.9
	c3.1-1,5.8,1.8,6.7,4.6C96.4,24.9,96.8,28.3,93.1,29.6 M104.1,13.9l3.1-0.6c1.6-0.3,2,0.6,2.4,1.9l0.6-0.3c-0.2-0.9-0.5-2.1-0.6-3
	c-1.3,0.2-3.4,0.7-5,1c-1.7,0.3-3.7,0.6-4.9,0.8l0.1,0.6l0.3,0c0.7-0.1,1.5-0.2,1.7,0.9l1.8,10.3c0.2,1-0.6,1.3-1.3,1.4l-0.3,0
	l0.1,0.6c0.8-0.1,2-0.4,3-0.6c1.1-0.2,2.5-0.4,3.4-0.5l-0.1-0.6l-0.3,0c-1,0.2-1.9,0.3-2.1-0.8l-0.9-5l2.4-0.4
	c1.3-0.2,1.7,0.5,1.9,1.6l0.6-0.1c-0.2-0.8-0.4-1.6-0.5-2.4c-0.1-0.7-0.2-1.4-0.3-2.1l-0.6,0.1c0.2,1,0,1.6-1,1.8L105,19L104.1,13.9
	z M127,11.1c-0.6,0-1.2,0-1.8,0c-0.8,0-1.6-0.2-2.4-0.2l0,0.6l0.3,0c0.9,0.1,1.7,0.5,1.6,1.6c0,0.8-0.2,2.1-0.4,3.5l-0.9,5.5
	c-0.3,1.4-0.4,2.1-1.9,2.1l-0.3,0l0,0.6c0.8,0,1.6,0,2.4,0.1c0.9,0.1,1.8,0.1,2.7,0.2l0-0.6l-0.2,0c-0.6-0.1-1-0.1-1.3-0.3
	c-0.2-0.2-0.4-0.5-0.4-1.2l1.2-8.7l0,0l4.2,11.3l0.5,0l5.7-10.9l0,0L136,23c0,0.5,0,0.7,0,1c-0.1,0.9-0.7,0.8-1.8,0.8l0,0.6
	c1.1,0,2.2,0,3.3,0.1c1,0.1,1.9,0.2,2.9,0.2l0-0.6c-1.2-0.1-1.7-0.2-1.7-1.2l-0.2-9.2c0-0.4-0.1-1,0-1.6c0.1-0.9,1.3-0.8,1.9-0.8
	l0.2,0l0-0.6c-0.7,0-1.4,0-2.1,0c-0.7,0-1.4-0.2-2-0.2L131,21.8L127,11.1z M146,22.2l4.4,1l0.2,2.4c0.1,0.7,0.1,1.2,0.1,1.5
	c-0.1,0.5-0.9,0.4-1.3,0.3l-0.2-0.1L149,28c1,0.2,2,0.4,2.9,0.6c0.9,0.2,1.8,0.5,2.7,0.7l0.1-0.6l-0.1,0c-0.6-0.2-1-0.5-1.1-1.1
	c-0.1-0.6-0.2-1.4-0.3-2.2l-1.2-11c0-0.2,0-0.4-0.1-0.5c0-0.1-0.1-0.1-0.1-0.1c-0.1,0-0.1,0-0.2,0c-0.4,0.1-1.3,0.4-2,0.4
	c-0.3,0.7-0.9,1.6-1.3,2.2l-5.2,8.2c-0.5,0.7-1.2,1-2,0.9l-0.1,0l-0.1,0.6c0.7,0.1,1.4,0.3,2.1,0.4c0.8,0.2,1.6,0.4,2.3,0.6l0.1-0.6
	l-0.2-0.1c-0.6-0.2-1.4-0.4-1.3-1c0.1-0.3,0.4-0.8,0.8-1.4L146,22.2z M150.2,22.1l-3.6-0.9l3.1-5.1l0,0L150.2,22.1z M167.6,22.5
	c0.2-0.9,0.5-1.9,0.8-2.7c-0.6-0.3-2.1-1.1-2.6-1.3c-2.4-0.9-4.7-0.1-5.6,2.3c-1.7,4.5,4.2,5.6,2.9,8.9c-0.5,1.3-1.8,1.7-3.1,1.3
	c-1.8-0.7-2.1-2.4-1.8-4.1l-0.6-0.1c-0.3,1-0.5,2-0.8,3c0.7,0.8,1.6,1.6,2.6,2c2.4,0.9,5,0.4,6-2.2c1.7-4.5-4.2-5.7-3.1-8.8
	c0.6-1.5,1.7-2,3.2-1.5c1.3,0.5,1.6,1.9,1.3,3.2L167.6,22.5z M178.8,28c0.3-0.9,0.7-1.8,1.1-2.6c-0.5-0.4-1.9-1.3-2.4-1.6
	c-2.3-1.2-4.6-0.7-5.8,1.6c-2.2,4.3,3.5,6,1.9,9.1c-0.7,1.3-2,1.5-3.2,0.9c-1.7-0.9-1.9-2.6-1.3-4.2l-0.6-0.2
	c-0.4,1-0.7,1.9-1.1,2.9c0.6,0.9,1.4,1.7,2.4,2.3c2.3,1.2,5,0.9,6.2-1.5c2.2-4.3-3.6-6.1-2.1-9.1c0.7-1.4,1.9-1.8,3.3-1.1
	c1.2,0.6,1.4,2.1,0.9,3.3L178.8,28z M182.1,37.2l3.7,2.6l-0.7,2.3c-0.2,0.6-0.3,1.2-0.5,1.4c-0.3,0.4-1,0-1.3-0.2l-0.2-0.1l-0.3,0.5
	c0.9,0.6,1.7,1.1,2.5,1.6c0.8,0.6,1.5,1.1,2.2,1.6l0.3-0.5l-0.1-0.1c-0.5-0.4-0.7-0.8-0.6-1.4c0.1-0.6,0.4-1.4,0.6-2.1l3-10.7
	c0-0.2,0.1-0.3,0.1-0.5c0-0.1,0-0.1-0.1-0.1c0,0-0.1,0-0.2-0.1c-0.4,0-1.3-0.2-2-0.3c-0.5,0.5-1.4,1.1-2,1.6l-7.9,5.7
	c-0.7,0.5-1.5,0.5-2.2,0.1l-0.1-0.1l-0.3,0.5c0.6,0.4,1.2,0.8,1.8,1.2c0.7,0.5,1.3,1,1.9,1.4l0.3-0.5L180,41
	c-0.5-0.4-1.2-0.9-0.8-1.4c0.2-0.3,0.7-0.6,1.3-1L182.1,37.2z M186.1,38.6l-3.1-2.1l4.8-3.6l0,0L186.1,38.6z M204.4,49.2
	c0.7-0.9,1.4-1.8,2.2-2.5c-1.2-1.5-1.2-2.5-2.9-4.1c-3-2.8-7.4-3.4-10.5-0.1c-3.4,3.7-2.7,7.7,0.6,10.8c1.3,1.3,2.8,2,4,2.5
	c0.8-0.7,1.6-1.4,2.6-2l-0.4-0.4c-1.7,1.1-3.7,1.1-5.3-0.3c-2.8-2.6-1.7-6.2,0.6-8.6c2.4-2.6,5.4-3.3,7.8-1c2.2,2,1.8,3.8,0.8,5.6
	L204.4,49.2z M206.7,56.8l4.4,5.7l-3.9,3c-0.9,0.7-1.4,0-1.9-0.5l-0.2-0.3l-0.5,0.4c0.5,0.7,1.4,1.7,2,2.5c0.6,0.8,1.3,1.8,1.8,2.4
	l0.5-0.4l-0.2-0.2c-0.4-0.6-0.8-1.2,0-1.9l8.3-6.4c0.8-0.6,1.4-0.1,1.8,0.5l0.2,0.2l0.5-0.4c-0.5-0.6-1.3-1.5-1.9-2.3
	c-0.7-0.9-1.4-1.9-1.9-2.6l-0.5,0.4l0.2,0.3c0.4,0.6,0.9,1.3,0.1,1.9l-3.5,2.7l-4.4-5.7l3.5-2.7c0.9-0.7,1.4,0,1.9,0.5l0.2,0.3
	l0.5-0.4c-0.5-0.7-1.4-1.7-2-2.5c-0.6-0.8-1.3-1.8-1.8-2.4l-0.5,0.4l0.2,0.2c0.4,0.6,0.8,1.2,0,1.9l-8.3,6.4
	c-0.8,0.6-1.4,0.1-1.8-0.5l-0.2-0.2l-0.5,0.4c0.5,0.6,1.3,1.5,1.9,2.3c0.7,0.9,1.4,1.9,1.9,2.6l0.5-0.4l-0.2-0.3
	c-0.4-0.6-0.9-1.3-0.1-1.9L206.7,56.8z M214,70.3c-3.1,1.7-3.4,4.2-1.5,7.6c1.4,2.6,3.7,4.1,7.7,2l5.6-3c1.3-0.7,1.6,0,1.9,0.4
	l0.2,0.4l0.5-0.3c-0.4-0.7-0.8-1.3-1.2-2c-0.4-0.7-0.7-1.5-1.1-2.2l-0.5,0.3l0.2,0.4c0.3,0.6,0.7,1.3-0.6,2l-6,3.2
	c-2.4,1.3-4.4,1.1-5.7-1.3c-1.4-2.5-0.3-4.2,2-5.4l6.1-3.3c1.3-0.7,1.7,0,2,0.7l0.1,0.2l0.5-0.3c-0.4-0.7-0.9-1.5-1.5-2.6
	c-0.6-1.1-1-2.1-1.4-2.8l-0.5,0.3l0.1,0.2c0.4,0.7,0.7,1.4-0.6,2L214,70.3z M229.9,89.3c0.9-0.4,1.7-0.9,2.6-1.2
	c-0.1-0.6-0.5-2.3-0.7-2.8c-0.9-2.4-3-3.6-5.4-2.7c-4.5,1.7-1.4,6.8-4.7,8c-1.3,0.5-2.5-0.2-3-1.5c-0.7-1.8,0.4-3.2,1.9-4l-0.3-0.5
	c-0.9,0.4-1.8,0.9-2.7,1.4c-0.1,1.1-0.1,2.2,0.3,3.3c0.9,2.4,3,4,5.6,3.1c4.5-1.7,1.4-6.9,4.5-8.1c1.5-0.6,2.7-0.1,3.2,1.4
	c0.5,1.3-0.4,2.5-1.5,3.1L229.9,89.3z M220.5,95.9c0.3,1.1,0.9,3.4,1.3,5.1c0.4,1.7,0.9,4,1.2,5.2c1.1-0.1,2.2-0.1,3.2-0.1l0-0.6
	c-2.4-0.1-2.8-1-3.3-3.4c-0.3-1.2-0.6-2.4,0.7-2.7l4.5-1.1l0.6,2.3c0.3,1.3-0.4,1.6-1.6,2l0.3,0.6c0.7-0.2,1.5-0.4,2.2-0.6
	c0.8-0.2,1.5-0.3,2.3-0.5l-0.1-0.6c-1.1,0.1-1.8,0-2.1-1.1l-0.6-2.3l5.1-1.2l0.6,2.7c0.5,2-0.5,2.5-1.7,2.9l0.3,0.5
	c0.8-0.3,2.1-0.6,3-0.8c-0.3-1.3-0.9-3.3-1.3-5c-0.4-1.6-0.8-3.7-1.1-4.9l-0.6,0.1l0.1,0.3c0.2,0.7,0.2,1.5-0.8,1.7l-10.2,2.4
	c-1,0.2-1.3-0.5-1.4-1.2l-0.1-0.3L220.5,95.9z M236.9,112.9l-10.6,1c-1.6,0.1-1.7-0.4-1.8-1.5l0-0.4l-0.6,0.1
	c0.1,0.8,0.3,2.2,0.4,3.4c0.1,1.1,0.2,2.5,0.2,3.2l0.6-0.1l0-0.4c-0.1-1,0-1.7,1.6-1.8l10.6-1l0.3,3.3c0.1,1.3-1,1.5-1.8,1.7
	l0.3,0.6c0.5-0.1,1.1-0.1,1.6-0.1c0.5,0,1.1,0,1.6,0.1l0-0.5c-0.6,0-0.7-0.5-0.7-1l-1-10.3c-0.1-0.5-0.1-1,0.5-1.2l0-0.5
	c-0.6,0.1-1.1,0.1-1.7,0c-0.6,0-1.1-0.1-1.7-0.1l0.1,0.6c1.5,0.2,1.8,0.2,2,1.7L236.9,112.9z M237.4,129.8l-10.6-0.6
	c-1.6-0.1-1.6-0.6-1.6-1.7l0-0.4l-0.6,0c0,0.8,0,2.2-0.1,3.4c-0.1,1.1-0.2,2.5-0.3,3.2l0.6,0l0-0.4c0.1-1,0.3-1.6,1.8-1.6l10.6,0.6
	l-0.2,3.3c-0.1,1.3-1.3,1.4-2,1.4l0.2,0.6c0.5,0,1.1,0.1,1.6,0.1c0.5,0.1,1.1,0.2,1.6,0.3l0.1-0.5c-0.6-0.1-0.6-0.6-0.6-1.1
	l0.6-10.3c0-0.5,0-1,0.6-1.2l0-0.5c-0.6,0-1.1-0.1-1.7-0.2c-0.6-0.1-1.1-0.2-1.7-0.3l0,0.6c1.4,0.4,1.8,0.5,1.7,2L237.4,129.8z
	 M233.1,148.9c1,0.1,1.9,0.2,2.8,0.3c0.2-0.6,0.7-2.2,0.8-2.8c0.5-2.5-0.7-4.6-3.3-5.1c-4.7-0.9-4.7,5.1-8.2,4.4
	c-1.4-0.3-2-1.5-1.8-2.8c0.3-1.9,2-2.5,3.7-2.5l0-0.6c-1-0.1-2-0.1-3-0.2c-0.7,0.9-1.3,1.9-1.5,3c-0.5,2.5,0.5,5,3.2,5.5
	c4.7,0.9,4.8-5.2,8.1-4.6c1.6,0.3,2.3,1.3,2,2.9c-0.3,1.4-1.6,1.9-2.9,1.8L233.1,148.9z M29.7,167l-4.2-1.6l-1.6,4.2l4.2,1.6
	L29.7,167z M28.4,186.6c0.3,0.4,1.2,1.5,2,2.6c0.8,1.1,1.6,2.2,2.1,3c2.2,3.4,6.9,4.1,10.1,1.7c3.3-2.5,3.7-6.6,0.8-10.5
	c-0.5-0.7-1.2-1.5-2-2.5c-0.8-1-1.5-2.1-1.9-2.6l-0.5,0.4l0.2,0.2c0.4,0.6,0.8,1.2,0,1.9l-8.4,6.3c-0.8,0.6-1.4,0.1-1.8-0.5
	l-0.2-0.2L28.4,186.6z M41.5,182.2c0.3,0.3,0.6,0.7,0.9,1c1.9,2.6,2.5,5.5-1.8,8.6c-2.5,1.8-5.8,2.1-7.8-0.6c-0.9-1.2-1.1-1.8,0-2.6
	L41.5,182.2z M45.1,199.5l3.2,3.2l-1.1,2.2c-0.3,0.6-0.5,1.1-0.7,1.3c-0.4,0.4-1-0.1-1.3-0.5l-0.2-0.2l-0.4,0.4
	c0.8,0.7,1.5,1.4,2.2,2.1c0.7,0.7,1.3,1.3,1.9,2l0.4-0.4l-0.1-0.1c-0.5-0.5-0.6-0.9-0.4-1.5c0.2-0.6,0.6-1.3,0.9-2l4.8-10
	c0.1-0.2,0.2-0.3,0.2-0.5c0-0.1,0-0.1-0.1-0.1c0,0-0.1-0.1-0.1-0.1c-0.4-0.1-1.3-0.4-1.9-0.7c-0.6,0.4-1.6,0.9-2.3,1.2l-8.7,4.2
	c-0.8,0.4-1.6,0.2-2.1-0.3l-0.1-0.1l-0.4,0.4c0.5,0.5,1.1,1,1.6,1.5c0.6,0.6,1.1,1.2,1.7,1.8l0.4-0.4l-0.2-0.2
	c-0.5-0.5-1-1.1-0.6-1.6c0.3-0.3,0.8-0.5,1.4-0.8L45.1,199.5z M48.8,201.6l-2.6-2.6l5.3-2.7l0,0L48.8,201.6z M53.9,212.1
	c-0.4,0.6-1.2,0.5-1.8,0l-0.3-0.2l-0.4,0.5c0.8,0.6,1.6,1.1,2.4,1.6c0.9,0.7,1.8,1.4,2.7,2.1l0.4-0.5l-0.3-0.2
	c-0.7-0.5-1.3-1-0.4-2.3l2.5-3.4l1.1,0.8c-0.3,2.6-0.5,5.1-0.5,7.7c0.5,0.4,1.1,0.7,1.6,1c0.5,0.4,1,0.8,1.5,1.2l0.4-0.5
	c-0.7-0.7-0.9-1.1-0.9-2.1l0.3-6.1c1.6,0.4,3.3,0.3,4.3-1.2c1.7-2.3,0.3-4.2-1.8-5.6c-0.9-0.6-1.7-1.1-2.6-1.8
	c-1-0.7-1.9-1.5-2.4-1.9l-0.4,0.5l0.3,0.2c0.5,0.4,1.1,0.9,0.2,2.1L53.9,212.1z M62.7,204.3c0.2,0.2,0.5,0.3,1,0.6
	c1.4,1.1,1.7,2.6,0.6,4.1c-1.4,1.9-2.7,1.9-4.3,0.7l-0.8-0.6L62.7,204.3z M75.7,213.1l-5,9.4c-0.7,1.4-1.3,1.2-2.3,0.7l-0.3-0.2
	l-0.3,0.5c0.7,0.4,2,1,3,1.5c1,0.5,2.1,1.2,2.8,1.6l0.3-0.5l-0.3-0.2c-0.8-0.4-1.4-0.9-0.7-2.3l5-9.4l2.9,1.5
	c1.2,0.6,0.7,1.7,0.4,2.4l0.6,0.1c0.3-0.5,0.5-0.9,0.8-1.4c0.3-0.4,0.6-0.9,1-1.3l-0.4-0.3c-0.3,0.5-0.8,0.3-1.2,0l-9.1-4.9
	c-0.5-0.3-0.9-0.5-0.8-1.1l-0.4-0.2c-0.3,0.5-0.6,1-0.9,1.4c-0.3,0.5-0.7,0.9-1,1.4l0.5,0.3c1-1.1,1.2-1.4,2.5-0.7L75.7,213.1z
	 M89.1,218.2c-0.6-0.2-1.2-0.3-1.7-0.5c-0.8-0.3-1.5-0.6-2.3-0.8l-0.2,0.6l0.2,0.1c0.8,0.3,1.5,0.9,1.2,2c-0.2,0.8-0.7,2-1.3,3.3
	l-2.3,5.1c-0.6,1.3-0.9,1.9-2.4,1.5l-0.3-0.1l-0.2,0.6c0.8,0.2,1.5,0.4,2.3,0.7c0.9,0.3,1.7,0.6,2.6,0.9l0.2-0.6l-0.2-0.1
	c-0.5-0.2-0.9-0.3-1.1-0.6c-0.2-0.3-0.2-0.6,0-1.2l3.4-8.1l0,0l1.2,12l0.5,0.2l8.3-9.1l0,0l-2.1,8.2c-0.1,0.5-0.2,0.7-0.3,0.9
	c-0.3,0.8-0.9,0.6-1.9,0.4l-0.2,0.6c1.1,0.3,2.1,0.6,3.2,0.9c0.9,0.3,1.8,0.6,2.7,1l0.2-0.6c-1.1-0.4-1.6-0.6-1.3-1.6l2.1-8.9
	c0.1-0.4,0.2-1,0.4-1.5c0.3-0.8,1.5-0.5,2.1-0.3l0.2,0.1l0.2-0.6c-0.7-0.2-1.4-0.4-2-0.6c-0.7-0.2-1.3-0.5-1.9-0.7l-7.7,8.5
	L89.1,218.2z M111.3,223.4c-4.1-0.5-7.7,2.2-8.3,6.3c-0.6,4.3,2.3,7.5,6.5,8.1c4.2,0.6,7.9-2,8.5-6.6
	C118.5,227.1,115.5,224,111.3,223.4 M109.8,237c-3.2-0.4-4.4-4-3.9-7.6c0.4-2.7,1.8-5.6,5.3-5.1c3.3,0.4,4.4,4.2,4,7
	C114.7,234.2,113.6,237.5,109.8,237 M122.6,234c0.1,3.6,2.3,4.9,6.1,4.8c3-0.1,5.3-1.5,5.2-6l-0.2-6.4c0-1.4,0.7-1.5,1.2-1.5l0.4,0
	l0-0.6c-0.8,0-1.5,0.1-2.3,0.2c-0.8,0-1.6,0-2.4,0l0,0.6l0.4,0c0.7,0,1.4,0,1.5,1.4l0.2,6.8c0.1,2.7-1,4.4-3.7,4.5
	c-2.9,0.1-3.8-1.6-3.9-4.2l-0.2-6.9c0-1.4,0.8-1.5,1.6-1.5l0.2,0l0-0.6c-0.8,0-1.8,0.1-3,0.2c-1.3,0-2.3,0-3.2,0l0,0.6l0.2,0
	c0.8,0,1.5,0,1.6,1.4L122.6,234z M142.5,224.1l1.9,10.5c0.3,1.6-0.2,1.8-1.3,1.9l-0.4,0.1l0.1,0.6c0.8-0.1,2.1-0.5,3.3-0.7
	c1.1-0.2,2.5-0.4,3.2-0.5l-0.1-0.6l-0.4,0.1c-0.9,0.2-1.7,0.1-1.9-1.4l-1.9-10.4l3.2-0.6c1.3-0.2,1.6,0.9,1.8,1.6l0.6-0.3
	c-0.1-0.5-0.2-1.1-0.3-1.6c0-0.5-0.1-1.1-0.1-1.6l-0.5,0c0.1,0.6-0.4,0.7-0.9,0.8l-10.1,1.9c-0.5,0.1-1,0.2-1.3-0.3l-0.5,0.1
	c0.1,0.6,0.2,1.1,0.2,1.7c0,0.6,0.1,1.1,0.1,1.7l0.6-0.1c0-1.5,0-1.9,1.5-2.1L142.5,224.1z M158.1,226.7l6.8-2.5l1.7,4.7
	c0.4,1-0.4,1.4-1.1,1.6l-0.4,0.1l0.2,0.6c0.8-0.3,2-0.8,3-1.2c1-0.3,2.1-0.7,2.9-0.9l-0.2-0.6l-0.3,0.1c-0.7,0.2-1.4,0.4-1.8-0.6
	l-3.5-9.8c-0.3-1,0.3-1.3,1-1.6l0.3-0.1l-0.2-0.6c-0.7,0.3-1.8,0.7-2.8,1.1c-1,0.4-2.2,0.7-3.1,1l0.2,0.6l0.4-0.1
	c0.7-0.2,1.5-0.5,1.8,0.5l1.5,4.1l-6.8,2.5l-1.5-4.1c-0.4-1,0.4-1.4,1.1-1.6l0.4-0.1l-0.2-0.6c-0.8,0.3-2,0.8-3,1.2
	c-1,0.3-2.1,0.7-2.9,0.9l0.2,0.6l0.3-0.1c0.7-0.2,1.4-0.4,1.8,0.6l3.5,9.8c0.4,1-0.3,1.3-1,1.6l-0.3,0.1l0.2,0.6
	c0.8-0.3,1.8-0.8,2.8-1.1c1-0.4,2.2-0.7,3.1-1l-0.2-0.6l-0.4,0.1c-0.7,0.2-1.5,0.5-1.9-0.5L158.1,226.7z M180.3,208l-0.5,0.3
	c-0.2,0.6-0.7,1.5-1.1,2.5c-0.4,1-0.9,1.9-1.4,2.7l0.6,0.3c0.5-0.8,1.1-1.8,1.6-2.5l5.4,8.5c0.6,0.9-0.2,1.4-1,1.9l-0.4,0.2l0.3,0.5
	c1-0.7,2-1.4,3-2c0.9-0.6,1.9-1.1,2.9-1.7l-0.3-0.5l-0.4,0.2c-0.8,0.5-1.5,1-2.1,0L180.3,208z M192.7,208.4c-0.8,1.5-1.1,3,0.1,4.4
	c1.4,1.7,3.8,1.1,5.3-0.1c1.7-1.4,2.4-4,0.8-5.8c-1.2-1.4-3-1.5-4.7-1.1c0.6-1.3,1-3.1-0.1-4.3c-1.4-1.6-3.4-1.3-4.9-0.1
	c-1.3,1.1-2.7,3.4-0.8,5.7c1.1,1.4,2.5,1.6,4,1.4L192.7,208.4 M193.6,205.9c-1.6,0.3-3.2,0.6-4.3-0.8c-0.7-0.9-0.7-2.3,0.2-3
	c1.1-0.9,2.6-0.5,3.5,0.6C193.7,203.5,193.9,204.8,193.6,205.9 M197.6,212.1c-1.2,1-2.7,0.8-3.7-0.4c-0.8-0.9-1.1-2.2-0.7-3.4
	c1.6-0.2,3.4-0.8,4.7,0.7C198.7,210,198.6,211.3,197.6,212.1 M203.5,196.2c-0.1,0.5-0.2,0.9-0.6,1.4c-1.1,1.2-3.2,0.6-4.3-0.5
	c-0.9-0.9-1.4-2.1-0.4-3.2c1.4-1.5,4.3,0.3,5.3,1.3c3.1,3,3.2,7.3,1.1,10.9l0.6,0.2c2.5-3.6,3.4-9.6-0.1-13c-2-1.9-5-2.5-7.1-0.3
	c-1.7,1.8-2,4.7-0.1,6.5c1.4,1.4,3.5,1.8,5.1,0.2c0.9-0.9,1.1-2.3,0.9-3.3L203.5,196.2z M208.9,190.3c1.6-1.5,4.4-2.7,6.4-1.2
	c1.3,1,1.8,2.6,0.8,3.9c-1.2,1.6-2.2,0.5-2.7,1.2c-0.3,0.4-0.1,0.8,0.2,1c0.9,0.7,2.1-0.4,2.6-1.1c1.7-2.2,1.8-5.4-0.6-7.2
	c-2.5-1.9-5.3-0.6-7.5,1.1l-1.2-1.7l2.9-3.8l-1.2-1.8l-3.3,4.5L208.9,190.3z M220.1,166.9l1.6,4.2l4.2-1.6l-1.6-4.2L220.1,166.9z"/>
<path fill="#003764" d="M120.4,46c0.3,0.6,1.3,0.8,0.9,1.7c-0.8,1.9-2.7,3-3.8,4.5c-0.7,0.4-1.1,0.8-1.9,1c-0.3,0.1-0.3,0.6-0.2,1
	c1,1.4,3.4,0.3,4.1,2.2c0.7,1.9,2.9,2,4.3,3c0.3,1.4,0.7,3.3-0.1,4.6c-0.1,0.3-0.6,0.6-1,0.5c-1.7-0.4-2.6-2-3.9-3.2
	c-2.2-2.5-5.2-3.6-7-6.4c-0.3-0.6-0.5-1.7-0.2-2.4c1.7-3,4.4-5.5,6.5-8.1c0.2-0.2,0.7-0.2,0.9,0C119.5,44.9,119.9,45.5,120.4,46
	 M130.1,48.4c-0.8-0.6-1.3-1.7-2.4-1.7c-0.3,0.2-0.8,0.2-0.7,0.8c4.7,5.2,9.6,10.4,14.7,15.8c1.8,1.6,3.5,3.6,5.4,5.1l0.2-0.1
	c0.1-1-0.5-1.4-0.7-2.2c-1.2-1.9-2.7-3.3-4.3-4.9C138.2,56.4,133.8,53.3,130.1,48.4 M126.8,50.3c-0.9-0.3-1.8-0.4-2.5-0.8
	c-0.6,0.2-0.8,0.6-1.2,1c-0.6,0.3-1.8-0.2-2,0.8c-0.3,0.8-1.2,1.3-1.3,2.2l1.6,2c1,0.4,2,0.8,2.8,1.4c1.9,0.2,3.9,0.5,5.1,1.9
	c1.4,1.1,1.7,3.1,1.9,4.8l0.6,0.2c1.6-0.5,3.4-0.1,4.8,0.6l3-0.7l0.1-0.2C135.6,59.3,130.8,54.8,126.8,50.3 M125.1,51.4
	c3.3,1.4,5,4.8,7.8,6.9c1.4,1.6,2.7,3.2,4.1,4.6c-1,0.3-1.7-0.3-2.5-0.5l-1.8-0.1c-0.3-2.8-1.7-4.7-4.1-5.8
	c-2.1-1.3-5.5-0.8-7.1-2.9C121.7,52,123.8,51.8,125.1,51.4 M128.7,61.7c-0.1-0.8-0.8-1.6-1.4-2c-0.6-0.2-1.2-0.4-1.7,0
	c-0.3,1.3,0.1,2.7-0.1,3.9l0.2,0.3c1-0.3,2.8,1,3.1-0.4C129.1,62.9,128.9,62.2,128.7,61.7 M137.3,67.9c-0.9-1.4-2.5-2.2-4.2-2.3
	c-0.3,0.3-1.1,0-1.2,0.6c1.2,1.3,3.3,2.7,5.6,2.1C137.4,68.1,137.4,67.9,137.3,67.9 M109.9,67.5c-1.3-0.8-2.5-2.4-4.3-1.7
	c-0.2,0.3-0.6,0.4-0.5,0.9c-0.1,0.6,0.3,1.2,0.7,1.6c1.4,0.5,2.8,0.1,4.1-0.3C110,67.9,110.1,67.5,109.9,67.5 M117.1,68.3
	c-1.2-1-2.4-2-3.9-2.5c-0.6,0-1.2-0.3-1.7,0.2c1.2,1.2,2.3,2.5,4.1,2.8C116.2,68.9,116.8,68.8,117.1,68.3 M142.4,67.3
	c-0.8-0.8-1.6-1.5-2.9-1.4c-0.3,0.1-0.8,0.1-0.8,0.6c0.8,0.9,1.7,2.1,3.3,1.9C142.4,68.1,142.6,67.8,142.4,67.3 M123.6,67.9
	c-1.4-0.8-2.5-2.2-4.5-1.9c-0.3,0.1-1-0.1-0.8,0.5c1.2,1,2.8,2.2,4.6,1.9C123.2,68.3,123.7,68.3,123.6,67.9 M130.9,68.1
	c-1.2-1.2-3-1.9-4.8-1.7c-0.1,0.1-0.5,0.1-0.3,0.4c1,1,2.3,2.1,4.1,1.9C130.3,68.6,130.8,68.6,130.9,68.1 M130.1,207.9
	c1.6-0.4,2.6-1.5,3.6-2.5c0.2-0.2,0.3-0.3,0.5-0.5c0.9-0.1,1.7-0.3,2.5-0.5c1-0.2,2-0.5,3.1-0.6c9.8-2.5,17.7-7.4,23.2-14.4
	c3.2-3.4,5-7.5,6.8-11.8c0.5-1.2,1-2.4,1.6-3.6c2-5.2,3.6-10.8,5.2-16.2l0.1-0.5c0.1-0.2,0.2-0.4,0.2-0.7c0-0.1,0.1-0.2,0.1-0.3
	c0.1,0,0.2,0.1,0.3,0.1c0.9,0.3,2,0.6,3.1,0c3.5-2,4.6-6,5.6-10.2c1-5,0.5-10-0.1-14.2c-0.5-3.5-1.1-7-1.6-10.6
	c-0.5-2.9-0.9-5.8-1.4-8.7c0-0.6,0-1.2-0.1-1.8c-0.1-1.1-0.2-2.2,0-3.1c0.4,0,0.9,0,1.4,0c0.8,0,1.6,0.1,2.4-0.1
	c2.6-0.7,3.3-3,3.8-5c0.3-1,0.6-2.1,1.2-2.9l0.2-0.2l0-0.3c-0.2-1.1-1.3-1.3-2-1.4c-0.1,0-0.2,0-0.3,0c0-0.1,0-0.2,0.1-0.3
	c0-0.2,0.1-0.4,0.1-0.6c0.1-2.7-1-4.6-3.3-5.5c-2.6-0.4-5.1-1.1-7.3-2c-2.3-0.7-3.9,1.1-4.5,1.7c-2.1,3-3.4,5.8-4.1,8.4
	c-0.5,1.4-0.8,2.9-1,4.6c0.4-3.8,0.6-7.4,0.8-10.8l-0.1-0.4c0.3-4.7,0.1-9.3,0-13.8c0-1.4-0.1-2.8-0.1-4.3l0-0.2
	c0-0.4-0.1-1.3-1.3-1.5c-2.4,0.2-5.1,0.1-7.6,0.1c-1.6,0-3.2,0-4.7,0l-46.2-0.3C104.2,73.1,100,73,94.8,73
	c-4.8-0.1-9.9-0.3-14.6-0.2l-0.3,0l-0.6,0.6l0,0.3c0,1.9-0.1,3.8-0.2,5.8c-0.1,3.5-0.3,7-0.1,10.5l0,0.3c0.5,8.4,1,17,2.1,25
	c0.5,6.8,1.9,12.9,3.4,19.3l0.2,0.7c2.5,10.2,6.3,19.7,10.1,28.5c0.6,1.1,1.2,2.1,1.8,3.2c3.7,6.7,7.6,13.7,12.9,19.1
	c1.2,1.6,2.6,3,4,4.3c0.6,0.6,1.3,1.2,1.9,1.8c-0.1,0-0.2,0-0.3,0l-0.2,0c-4.1-0.2-8-1.7-12.2-4.6c-7.2-5-12.3-12.7-16.2-24.1
	c-0.1-0.5-0.2-0.9-0.3-1.3c-0.2-0.5-0.3-1-0.3-1.5c1.7-0.5,2.9-1.7,3.8-3.9c0.8-3.1-0.3-6.3-2.9-8.2c-1.9-1.1-3.6-0.5-5.4,0.2
	c0-0.1-0.1-0.1-0.1-0.2c-0.1-0.1-0.1-0.2-0.2-0.2c-1.9-4.1-2.8-9-2.9-15.2c0.1-3.2,0.3-6.4,0.5-9.5c0.4-6.9,0.8-14,0.4-21.1
	c-0.1-0.7-0.1-1.4-0.2-2.2c-0.3-3.5-0.6-7.2-3.3-9.6c-1.6-1.6-3.5-1.3-5.4-1c-1.1,0.2-2.3,0.4-3.5,0.1c-0.5,0-1.2-0.1-1.8-0.3
	c-1.5-0.3-3.2-0.7-4.6,0.7c-0.8,1-0.8,2.5-0.6,3.7c0.1,0.6,0.3,1.1,0.4,1.7c0.9,3.5,1.9,7.2,1.2,11l0,0.4c0.2,1,0.9,1.1,1.4,1
	c1-0.3,2.1-1,2.9-1.7l0,0c0.1,5.7-0.1,11.4-0.3,16.8c-0.1,1.9-0.1,3.8-0.2,5.8c0,1.2,0,2.3,0.1,3.5c0,3.7,0.1,7.5,0.8,11.1
	c1,4.8,2.9,10.5,8.4,11.9c0.5,0.2,1.1,0.2,1.6,0.2c0.3,0,0.9,0,1,0.1c0,0,0.1,0.1,0.1,0.2c0,0.1-0.3,0.3-0.6,0.4
	c-0.3,0.2-0.7,0.4-0.9,0.6c-2.3,2.1-2.4,6-1.6,8.7c1.7,6.4,4.3,12.5,7.7,18c5.9,8.3,13.1,17.4,24.5,19.8c2.3,0.4,4.3,0.7,6.7,1.1
	l0.1,0.1c0.5,0.8,1,1.5,1.9,2.2c2.3,1.5,5.1,2.2,8.2,2.2C125.3,209.1,127.7,208.7,130.1,207.9z M76,154.2c-0.4,0-0.8,0-1.1-0.1
	l-0.2-0.1c-4.8-1.2-6.5-6.4-7.4-10.8c-0.7-3.5-0.7-7-0.8-10.8c0-1.2,0-2.3-0.1-3.4c0.1-1.9,0.1-3.8,0.2-5.7c0.2-5.5,0.4-11.2,0.3-17
	l-0.3-1.8l-1.3,0.2l-0.2,0.2c-0.7,0.8-1.6,1.4-2.5,1.8c0.6-4-0.3-7.7-1.3-11.3c-0.2-0.6-0.3-1.1-0.4-1.7c-0.2-0.8-0.1-2,0.3-2.5
	c0.8-0.8,1.7-0.6,3.3-0.3c0.7,0.2,1.4,0.3,1.9,0.3c1.3,0.3,2.6,0.1,3.9-0.1c1.9-0.3,3.1-0.4,4.2,0.7c2.3,2.1,2.6,5.3,2.9,8.7
	c0.1,0.7,0.1,1.5,0.2,2.2c0.4,6.9,0,14-0.4,20.9c-0.2,3.1-0.4,6.4-0.5,9.6c0.1,6.5,1.1,11.6,3.1,15.9l0.1,0.2
	c0.1,0.1,0.1,0.1,0.2,0.2c0.2,0.3,0.6,0.8,1.2,0.8l0.4-0.1c1.6-0.6,2.9-1.2,4.3-0.4c2.1,1.5,3,4.1,2.4,6.6c-0.7,1.8-1.8,2.8-3.3,3.1
	l-0.5,0.1l-0.1,0.5c-0.1,0.9,0.1,1.7,0.3,2.5c0.1,0.4,0.2,0.8,0.3,1.3c4,11.7,9.3,19.6,16.7,24.9c4.4,3,8.5,4.6,12.9,4.8l0.2,0
	c0.7,0,1.5,0,2.1-0.5l0.5-0.5l-0.4-0.5c-0.9-0.9-1.8-1.8-2.7-2.7c-1.4-1.3-2.8-2.6-3.9-4.2c-5.3-5.3-9.1-12.2-12.8-18.9
	c-0.6-1.1-1.2-2.1-1.8-3.2c-3.8-8.7-7.6-18.1-10-28.2l-0.2-0.7c-1.5-6.4-2.9-12.4-3.3-19.1c-1.1-8-1.6-16.6-2.1-24.9l0-0.3
	c-0.2-3.4,0-7,0.1-10.4c0.1-1.8,0.1-3.6,0.2-5.3c4.5-0.1,9.4,0.1,14.1,0.2l0,0c5.2,0,9.4,0.1,15.6,0.2l46.2,0.3c1.5,0,3.1,0,4.6,0
	c2.5,0,5.1,0.1,7.5-0.1c0,0.1,0,0.2,0,0.2c0,0.1,0,0.2,0,0.2l0,0c0,1.4,0.1,2.8,0.1,4.2c0.1,4.5,0.3,9.1,0,13.8l0.1,0.4
	c-0.4,7.1-1,14.8-2.4,23.4c-0.1,1.2-0.4,2.3-0.7,3.5c-0.3,1.1-0.6,2.2-0.7,3.3c-0.4,1.6-0.8,3.3-1.2,4.9c-0.6,2.7-1.3,5.4-2.1,8
	c-1.3,4.5-3.1,9.3-5.5,14.8c-2.2,6.5-5.1,12.9-9,19.5c-4.1,6.7-8.4,12.3-13.5,17.5c-0.6,0.5-1.1,1-1.7,1.6c-0.8,0.8-1.5,1.5-2.4,2.2
	c-0.2,0.2-0.3,0.5-0.2,0.8s0.2,0.5,0.5,0.7l0.2,0.1l0.1,0c0.2,0.1,0.5,0.2,0.9,0.1c3.9,0,7.5-1.4,10.6-2.7
	c5.1-2.1,9.6-5.7,13.5-11.2c2.3-3.3,4.3-7.3,5.8-11.5c0.7-2.2,1.4-4.5,2-6.7c1.1-3.8,2.2-7.7,3.6-11.2c0.6-1.7,2.6-5.6,7.2-5.7
	l0.4,0l0.6-0.9v-0.2c0-5.2-0.8-10.4-1.5-14.9c-0.8-5.3-1.8-11.4-2.5-17.4c-0.4-4.1,0-8.3,1.1-11.3c0.6-2.6,1.9-5.2,3.8-8
	c1.1-1.2,2-1.6,3-1.3c2.2,0.9,4.8,1.7,7.4,2.1c1.6,0.6,2.3,2,2.2,4c0,0.1-0.1,0.3-0.1,0.4c-0.1,0.5-0.3,1,0,1.5l0.1,0.2l0.2,0.1
	c0.3,0.1,0.6,0.2,0.9,0.2c0.2,0,0.5,0.1,0.7,0.1c-0.5,0.9-0.8,1.9-1.1,2.9c-0.6,1.9-1,3.6-2.9,4c-0.6,0.2-1.3,0.1-2,0.1
	c-0.7,0-1.4-0.1-2.1,0.1l-0.4,0.1l-0.1,0.4c-0.4,1.3-0.3,2.7-0.2,4c0,0.6,0.1,1.1,0.1,1.8c0.4,2.9,0.9,5.9,1.4,8.8
	c0.6,3.6,1.2,7.1,1.6,10.6c0.6,4.1,1,9,0.1,13.7c-0.8,3.9-1.9,7.5-4.9,9.2c-0.6,0.3-1.2,0.2-2.1-0.1c-0.3-0.1-0.6-0.2-0.9-0.3
	l-0.3-0.1l-0.3,0.2c-0.4,0.4-0.6,0.9-0.7,1.3c0,0.1-0.1,0.3-0.2,0.5l-0.2,0.6c-1.6,5.4-3.2,10.9-5.2,16c-0.6,1.2-1.1,2.4-1.6,3.6
	c-1.8,4.2-3.5,8.1-6.6,11.4c-5.4,6.8-12.9,11.5-22.4,13.9c-1.1,0.1-2.1,0.4-3.1,0.6c-0.8,0.2-1.7,0.4-2.6,0.5l-0.2,0l-0.2,0.2
	c-0.2,0.2-0.5,0.5-0.7,0.7c-0.9,0.9-1.7,1.8-3,2.2c-5.3,1.8-10.6,1.5-14.1-0.8c-0.7-0.5-1.1-1.1-1.6-1.9l-0.4-0.7l-0.3,0
	c-2.5-0.3-4.5-0.7-6.9-1.1c-10.9-2.3-18-11.2-23.7-19.2c-3.3-5.4-5.8-11.3-7.5-17.6c-0.7-2.4-0.6-5.8,1.3-7.4
	c0.1-0.1,0.3-0.2,0.5-0.3c0.5-0.2,1.2-0.6,1.4-1.5c0-0.6-0.1-1-0.4-1.3c-0.5-0.5-1.1-0.5-1.7-0.5C76.1,154.2,76.1,154.2,76,154.2z
	 M169.5,111.7c0.8,6.1,1.7,12.2,2.5,17.4c0.7,4.4,1.4,9.4,1.4,14.4c-3.6,0.3-6.5,2.7-8,6.6c-1.5,3.6-2.6,7.6-3.7,11.4
	c-0.6,2.2-1.3,4.5-2,6.6c-1.5,4.1-3.4,8-5.6,11.2c-3.8,5.2-8,8.7-12.9,10.7c-2.8,1.2-6.1,2.4-9.6,2.5c0.5-0.4,1-0.9,1.4-1.4
	c0.5-0.5,1.1-1.1,1.7-1.6c5.2-5.3,9.5-10.9,13.7-17.8c3.9-6.8,6.9-13.3,9.1-19.8c2.4-5.5,4.2-10.4,5.5-15c0.8-2.6,1.4-5.4,2.1-8.1
	c0.4-1.7,0.8-3.3,1.2-5c0.1-1.1,0.4-2.1,0.7-3.2c0.3-1.2,0.6-2.4,0.8-3.7c0.6-3.9,1.1-7.6,1.5-11.1
	C169.3,107.9,169.3,109.8,169.5,111.7z M149.8,72.8c0.3-0.8,0.5-1.5,0.4-2.1c-0.4-4.2-2.2-7.6-5.1-10.1
	c-5.1-4.9-10.3-10.3-14.4-15.1l-0.1-0.5l-0.1-0.2c-0.3-0.5-0.4-1.2-0.6-1.9c-0.3-1.2-0.6-2.5-1.8-3.4c-1-0.9-2.3-1.4-4-1.3
	c-0.4,0.1-0.8,0-1.3-0.1c-0.8-0.1-1.8-0.3-2.6,0.5c-1.2,0.7-0.9,2.1-0.8,3.1c0,0,0,0.1,0,0.1c-0.3,0.2-0.6,0.3-1.1,0.4
	c-0.7,0.2-1.5,0.4-2.1,1.3c-1.7,0.8-2.8,2.2-3.9,3.6c-0.5,0.7-1,1.3-1.6,1.9c-1,1.4-3.3,4.8-1.2,7.5c0.9,1.4,2.2,2.4,3.4,3.4
	c0.8,0.7,1.6,1.3,2.2,2c0.3,0.3,0.6,0.7,1,1c0.2,0.2,0.5,0.4,0.7,0.7c-0.2,0.1-0.4,0.2-0.6,0.3c-0.2,0.1-0.4,0.2-0.7,0.3
	c-0.2-0.1-0.4-0.2-0.6-0.2c-0.7-0.3-1.4-0.5-2.2-0.7c-1.7-0.4-3.2,0.2-4,0.5c-1.1-0.4-3.2-0.9-4.7,0.1c-0.8,0.5-1.4,1.3-1.7,2.5
	c-0.3,1.8,0.7,3,1.6,3.9c2.4,2.1,6,1,8.2,0c2,0.9,4.7,1,6.8,0.3c0.4,0,0.7,0.1,1.1,0.3c0.4,0.1,0.8,0.3,1.3,0.4
	c1.3,0.3,2.9-0.1,4.3-0.8c2,1,4.9,1.6,7.2,0.4l0.2-0.1c0.2-0.2,0.2-0.2,0.7,0.1c0.4,0.2,0.8,0.4,1.2,0.4c1.7,0.3,3,0.3,4.4-0.2
	c0.4-0.2,0.7-0.1,1.4,0.1c0.4,0.2,0.9,0.3,1.5,0.3c0.7,0,1.4-0.3,2-0.8c0.3-0.2,0.5-0.5,0.6-0.7c0.4,0.3,0.8,0.7,1.1,1.1
	c0.8,0.9,1.6,2,3.3,2h0.5L149.8,72.8z M144.4,68.6c-0.5,0.1-0.7,0.6-0.8,0.8c0,0.1-0.1,0.2-0.2,0.3c-0.7,0.6-1.4,0.6-2.2,0.3
	c-0.7-0.3-1.6-0.6-2.5-0.1c-1,0.3-2.1,0.3-3.6,0c-0.2,0-0.4-0.1-0.7-0.3c-0.5-0.3-1.4-0.8-2.3,0.1c-1.8,0.9-4.4,0.4-6.1-0.6
	l-0.4-0.2l-0.4,0.2c-1.2,0.7-2.6,1.1-3.7,0.9c-0.4,0-0.7-0.2-1-0.3c-0.5-0.2-1-0.4-1.7-0.4l-0.2,0c-1.9,0.6-4.4,0.5-6.2-0.4
	l-0.3-0.1l-0.3,0.1c-1.4,0.7-5,2.1-7,0.3c-0.8-0.8-1.4-1.5-1.2-2.6c0.2-0.8,0.5-1.3,1.1-1.6c1-0.6,2.6-0.4,3.9,0.1l0.3,0.1l0.3-0.2
	c0.8-0.5,2.1-0.8,3.2-0.5c0.7,0.2,1.3,0.4,2,0.7c0.3,0.1,0.6,0.2,0.9,0.3l0.2,0.1l0.2-0.1c0.4-0.1,0.8-0.3,1.1-0.5
	c0.4-0.2,0.7-0.4,1.2-0.5l0.9-0.2l-0.4-0.8c-0.4-0.7-0.9-1.2-1.5-1.7c-0.3-0.3-0.6-0.5-0.9-0.8c-0.7-0.8-1.6-1.5-2.4-2.2
	c-1.1-0.9-2.3-1.9-3.1-3.1c-1.3-1.7,0-4.1,1.2-5.8c0.6-0.6,1.1-1.3,1.6-1.9c1-1.3,2.1-2.7,3.6-3.3l0.2-0.1l0.1-0.2
	c0.3-0.6,0.7-0.7,1.4-0.8c0.6-0.2,1.4-0.3,2-1.1l0.2-0.2l0-0.3c0-0.2-0.1-0.3-0.1-0.5c-0.2-1-0.2-1.5,0.1-1.7l0.2-0.1
	c0.3-0.3,0.7-0.3,1.5-0.1c0.5,0.1,1.2,0.2,1.7,0.1c1.2-0.1,2.2,0.3,2.9,1l0.1,0.1c0.8,0.6,1,1.5,1.3,2.6c0.2,0.7,0.3,1.5,0.7,2.1
	l0.1,0.5l0.2,0.3c4.2,4.9,9.4,10.3,14.7,15.4c2.7,2.3,4.3,5.4,4.6,9.3c0,0.3,0,0.6-0.1,0.9c-0.7-0.2-1.1-0.7-1.8-1.4
	c-0.5-0.6-0.9-1.1-1.5-1.5c-0.3-0.2-0.5-0.3-0.8-0.3C144.5,68.6,144.4,68.6,144.4,68.6z M144.6,69.9c-0.1,0-0.1,0-0.2,0l0.3-0.6
	L144.6,69.9z M121.9,39.9c-0.1-0.3-0.5-0.3-0.8-0.3c-0.8,1-0.3,2.8-0.1,3.9c1,0.8,2.2,0.6,3.2,1.3c0.8,0.8,2.1,0.2,2.9-0.1
	c0.2-0.1,0.6-0.1,0.7,0.2c-1,1.6-3.6,1.2-5.4,1c-0.3,0.2-0.8,0.3-0.6,0.8c0.3,0.2,0.7,0.1,1,0c0.5,0.3,1,0.6,1.7,0.4
	c1.4-0.2,3-0.6,3.8-1.7c0.3-1.7-0.1-3.2-1-4.5c-1.2-0.6-2.4-1.7-4-1.2c-0.8-0.1-0.8,1.2-1.4,1C121.7,40.5,121.8,40.1,121.9,39.9
	 M124,40.4c0.3-0.1,0.3,0.1,0.5,0.2l-1.5,1.7c-0.3-0.1-0.4-0.2-0.3-0.5C122.9,41.1,123.3,40.7,124,40.4 M124.2,41.8
	c0.6-0.2,1.5-1.1,1.9-0.2c-0.5,0.6-1.2,1.3-1.9,1.9c-0.1,0.1-0.6,0.1-0.6-0.1C123.6,42.7,123.9,42.2,124.2,41.8 M126.5,42.6
	c0.5-0.1,0.8,0.1,0.9,0.4c-0.3,0.6-1.1,1.1-1.8,1.4c-0.3,0-0.4-0.2-0.5-0.4C125.3,43.3,125.8,42.8,126.5,42.6 M64.9,93.5
	c1.4,2.4,1.3,6.7-0.5,8.9c-0.1,0-0.1,0.2-0.3,0.1c-0.2-3.4-1.1-6.3-1.7-9.5c-0.1-0.6,0.2-0.9,0.7-1C64,92.1,64.5,92.9,64.9,93.5
	 M186.7,95.3c-0.1-0.2-0.3-0.3-0.6-0.3c-1.6,1.3-2.3,3-3,4.8c-0.4,1.4-1,2.9-0.5,4.3c0.3,0.1,0.7,0.1,1-0.1c0.1-1.3,1-2.4,1.5-3.6
	C185.8,98.8,186.9,97.1,186.7,95.3 M188,102.4c0-0.4,0.4-0.9,0-1.2c-1,0.6-1.9,1.4-2.1,2.8c0,0.4,0.3,0.6,0.8,0.5
	C187.6,104,187.7,103.2,188,102.4 M117.9,195c-0.1-0.3,0.1-1-0.5-0.9c-0.8,0.2-0.8,0.9-1,1.5c0,1,0.6,1.3,1.3,1.8
	C118.3,197,117.8,195.9,117.9,195 M125.1,196.9c-2.1,2-3.4-1-5.3-1.7c-0.3,0.9-0.1,2.1,0.2,2.9c2.1,0.4,4.5,0.5,6.7,0.2
	c0.7-0.6,0.4-1.8,0.6-2.7l-0.3-0.2L125.1,196.9 M130.6,196.2c-0.2-0.5-1-1.1-1.5-0.6c-0.1,0.8-0.3,1.7-0.1,2.3
	c0.2,0.3,0.3-0.1,0.6-0.1C130.1,197.5,130.8,197.1,130.6,196.2 M130.6,199.7c-4.4,1.4-9.7,1.1-13.9-0.2l-0.4,0.1
	c-0.8,0.8-1,2.5-0.6,3.7c1.1,1.8,3.5,2.3,5.5,2.8c3.9,0.2,8.6,0.3,10.5-3.2C132.1,201.5,131.5,200.5,130.6,199.7 M180.7,93.3
	c-1.2-0.1-1.9-1.4-3.2-0.9c-4.2,4.6-5.8,11.4-5.3,18.6c1.2,9.4,2.7,18.5,3.8,27.8c0.1,2.3,0.1,3.5,0.3,5.8c2.8,1.1,4.7,3.8,4.8,7
	l0.2,0.1c0.9-1.1,1.2-2.4,1.5-3.9c1.2-5.9,0.9-12.5-0.1-18.4c-1.2-10.7-5.8-23.5-0.3-33.5c0.3-0.7,0.8-1.2,1-1.9
	C182.6,93.7,181.6,93.6,180.7,93.3 M174,103.6c1.6,0.3,3.1,0.4,4.6,0.6c0.3,0.4,0.2,0.9,0.2,1.4c-0.6,0.5-1.2-0.3-1.9-0.2l-0.3,0.1
	c0.1,0.7,1.9,1.2,0.8,2.2c-0.2,0.3-0.8,0.3-0.7,0.7c0.6,0.3,1.4,0.2,2-0.1c0.6,0.1,0.5,0.8,0.4,1.3l-0.2,0.2c-1.6-0.1-3.4-0.8-5-0.2
	c-0.4-0.2-0.3-0.7-0.2-1.1c0.4-0.8,1.3-1.1,1.9-1.9C175.4,105.2,173,105.1,174,103.6 M178,110.8c1.7,0.1,0.9,2.3,1.3,3.5
	c0,0.3-0.3,0.3-0.4,0.4c-1.4-0.3-3,0.2-4.6,0.3l-0.3-0.2c0-1-1-2.8,0.3-3.3h0.1c0.1,0.6-0.4,1.5,0.3,1.9c0.7-0.1,1.5-0.3,1.2-1.2
	c0.1-0.4,0.8-0.5,1.1-0.3c0.3,0.3-0.1,1,0.4,1.1c0.5,0.2,0.8-0.1,0.8-0.5C178.5,111.9,177.4,111.4,178,110.8 M175.6,116.1
	c0.1,0.6-0.3,1.2,0,1.8l0.3,0.1c1.2-0.3,2.5-0.3,3.7-0.6c0.5,0.2,0.3,1,0.5,1.4l-0.4,0.2c-1.2,0.1-2.4,0.1-3.6,0.3
	c-0.5,0.2-0.3,0.8-0.2,1.1c0.1,0.2,0.3,0.5,0.1,0.7c-0.5,0.1-0.6-0.2-0.9-0.3c-0.4-1-0.3-2.2-0.7-3.2c-0.3-0.4-0.1-0.9,0.1-1.2
	C174.9,116.2,175.2,115.8,175.6,116.1 M179.9,121.5c0.4-0.1,0.8,0.3,0.8,0.6l0.4,3c-0.4,0.6-1.2,0.1-1.9,0.3L176,126
	c-0.5-0.8-0.4-1.9-0.5-2.9c0-0.4,0.3-0.7,0.6-0.8c0.8,0.2-0.3,2.7,1.2,1.7c0.3-0.1,0.1-0.5,0.1-0.8c0.3-0.2,0.9-0.6,1.3-0.1
	c0.1,0.4,0.2,0.9,0.8,0.7c0.3-0.1,0.5-0.2,0.5-0.5C180.2,122.6,178.9,121.9,179.9,121.5 M181.3,127.5c0.4,0.3,0.6,0.8,0.5,1.4
	c-0.1,0.2-0.2,0.5-0.6,0.4c-1.6,0-3.4-0.1-4.5,0.9l-0.6-0.1c0-0.7-0.6-1.7,0.1-2.2C177.9,128.2,179.6,127.7,181.3,127.5
	 M176.5,130.8c0.7,0.3,1.3,0.8,1.9,1.2l3.3,1.3c0.3,0.3,0.1,0.6-0.2,0.8c-1.5,0.6-2.8,1.6-4.2,2.5c-0.2,0.1-0.4-0.1-0.5-0.3
	c-0.1-0.5-0.3-1.4,0.2-1.7c0.9-0.1,1.7-0.5,2.1-1.2c-0.2-0.5-1-0.7-1.4-0.8c-0.5,0.1-1.5,0.4-1.4-0.6
	C176.4,131.7,176.1,131,176.5,130.8 M179.2,136.8c1.2-0.5,2,1.7,3.1,0.3c0.8,0.4,0.2,1.6,0.1,2.3c0.1,1-0.1,2.1-0.9,2.7
	c-1.1,0.8-2.5,0.9-3.8,0.2c-0.9-0.7-1.7-1.9-1.4-3.2C177,138,177.8,137,179.2,136.8 M180.9,138.9c-0.6-0.5-1.6-0.3-2.3-0.2
	c-0.5,0.3-1,0.8-1.1,1.4c0.1,0.4,0.1,0.7,0.6,1c0.6,0.6,1.9,0.5,2.7,0.3c0.3-0.3,0.9-0.7,0.9-1.2c-0.1-0.3-0.3,0-0.6,0
	c-0.1,0-0.4-0.1-0.4-0.3C180.5,139.3,180.9,139.2,180.9,138.9 M75.3,96.3c-0.6-1.7-1.2-4.1-3.4-4.1c-1.5,0.4-3.3,0.4-5.1,0.5
	c0.3,1.5,0.8,3.2,1,4.8c0.8,4.8,0.7,9.8,0.6,14.4c-0.1,8.8-1,17.2-0.3,25.8c0.9,5.4,0.8,12.6,6.4,14.7c1.8,0.5,3.9,0.3,5.2-0.6
	c0.1-0.2,0.3-0.5,0.1-0.8c-2.3-3.2-3.3-7.1-4.1-11.2c-0.8-8.5,0.2-16.5,0.4-25C75.9,108.8,76.8,102.1,75.3,96.3 M74.2,99
	c0.5,1,0.4,2,0.5,3c-0.1,0.4-0.4,0.6-0.8,0.8c-0.3,0-0.4-0.2-0.3-0.5c0.1-0.4,0.3-0.8,0.1-1.3c-0.2-0.1-0.7-0.1-0.9,0
	c-0.4,0.3,0.1,0.7-0.1,1c-0.4,0.1-0.9,0.3-1.2,0c-0.2-0.3,0-0.9-0.6-0.9c-0.4-0.1-0.8,0.1-0.9,0.5c-0.1,0.6,0.6,1.1,0,1.6
	c-0.6,0.1-0.8-0.3-1-0.6c0.1-1-0.3-2.1,0-3.1c1.1-0.3,2.3,0,3.4-0.3C73,99,73.6,98.8,74.2,99 M74.9,105c0.3,1.7-1.7,2-2.4,3
	c-0.1,0.3,0.2,0.4,0.5,0.3c0.7,0.3,1.7-0.5,1.8,0.5c0.1,0.3-0.1,0.7-0.4,0.8c-1.7-0.2-3.3,0.1-4.8,0c-0.3-0.1-0.3-0.6-0.1-0.7
	l2.3-2.5c0.1-0.2-0.1-0.3-0.3-0.3c-0.7-0.1-2.4,0.5-2-0.9c0-0.4,0.3-0.5,0.6-0.5c1.8,0.3,3.1-0.3,4.7-0.1L74.9,105z M73.3,110.7
	c0.7-0.1,1.2,0.3,1.4,0.8c0.5,1.1,0.3,2.4-0.1,3.4c-0.5,0.3-1,0.1-1.5,0c-0.2-0.9,1-1.1,1-2.1c-0.1-0.1-0.1-0.4-0.3-0.4
	c-0.4,0.1-0.8,0.4-1,0.8c-0.1,0.9-0.8,1.7-1.7,1.9c-0.3,0.2-0.8,0-1.1-0.1c-0.9-0.7-1.1-1.9-0.9-3c0-0.5,0.3-0.9,0.8-1
	c0.3-0.1,0.7,0.1,0.6,0.5c-0.1,0.6-0.5,1.2-0.1,1.8c0.2,0.3,0.6,0.3,0.8,0.1C72,112.5,72,111.1,73.3,110.7 M74.6,117.1l-0.1,3.2
	c-0.2,0.3-0.6,0.5-1,0.6c-0.2,0-0.3-0.3-0.3-0.4c0.1-0.6,0.8-1.4,0.3-1.9c-0.3-0.1-0.8-0.1-1,0.2c-0.1,0.4,0.2,1-0.3,1.1
	c-0.4-0.1-1,0.1-1.1-0.3c-0.1-0.4,0.2-1-0.3-1.1c-0.3,0.1-0.9-0.1-1,0.4c0,0.7,0.8,1.4,0.3,1.9c-0.5-0.1-1-0.3-1.2-0.7
	c-0.1-1-0.2-2,0-3l0.2-0.2c1.8-0.1,3.6,0,5.3-0.1L74.6,117.1z M71.3,124.4c1,0.1,2.3-0.6,2.9,0.3h-0.1c-0.1,0.8,0.4,2.9-0.8,3.7
	c-0.6,0.3-1.6,0.3-2.2,0c-0.7-0.4-1-1.3-1.1-2.2c-0.4-0.4-1.2,0.1-1.4-0.6c0-0.4-0.3-0.8,0.1-1.1C69.5,124.2,70.4,124.5,71.3,124.4
	 M73.1,126.4c0.1-0.6-0.6-0.3-0.9-0.4c-0.5,0-1,0.1-0.8,0.6c0.3,0.3,0.6,0.6,1.1,0.6C72.8,127.1,73,126.8,73.1,126.4 M69.5,129.7
	c1.9,0.1,2.7-0.1,4.4,0.1c0.3,1.1,0.3,2.2,0.1,3.3c-0.2,0.3-0.6,0.3-1,0.2c-0.1-0.8,0.6-1.2,0.2-1.9c-0.3-0.2-0.8-0.1-1,0.1
	c-0.4,0.6,0.3,1.4-0.7,1.4c-0.4,0.1-1.1,0.1-0.8-0.6c-0.1-0.3,0.5-0.5,0.1-0.8c-0.3-0.1-0.9-0.2-1,0.1c-0.6,1,0.6,1.6,0.3,2.5
	c-0.5-0.1-1-0.1-1.2-0.5c-0.3-1-0.5-2.1-0.4-3.2C68.5,129.7,69.1,129.9,69.5,129.7 M73.2,134.7c0.3-0.1,0.8-0.1,0.9,0.3
	c-0.1,1.3,0.6,2.6,0.1,3.9c-0.2,0.2-0.6,0.4-0.8,0.2c0-0.4,0.3-0.8,0.1-1.1c-1.3-0.4-2.8,0.2-4.2-0.1c-0.3-0.1-0.3-0.3-0.3-0.6
	c-0.2-0.9,0.8-0.7,1.4-0.8l2.8-0.3c0.3-0.1,0.3-0.7,0.1-0.9C73.1,135.1,73,134.8,73.2,134.7 M73.9,140.1c0.5-0.1,0.8,0.3,0.9,0.7
	c0.1,0.4-0.1,0.8-0.5,0.9c-1.5,0.1-3.1,0.4-4.5,0.3c-0.2-0.3-0.2-0.7-0.1-1L73.9,140.1 M74.1,142.8c0.6,0,1.2,0,1.4,0.6
	c-0.1,1.2,1.8,3-0.2,3.7c-0.3-0.3-0.3-0.8-0.4-1.2c-1.4,0-2.8,1.1-4.1,1c0-0.5-0.6-0.9-0.1-1.4c1.4-0.3,2.5-0.6,3.8-1.2
	C74.8,143.6,73.3,143.4,74.1,142.8 M82.8,158.9c-0.3-0.4-0.8-0.9-1.4-1c-1.6-0.2-3.2,0.1-4.4,1.2c-1,0.7-0.8,2.2-0.8,3.4
	c1,5.9,3.1,11.3,5.9,16.2c3.7,7.4,9.4,13.8,16.1,18.3c3.4,2.3,7.6,3.4,11.8,4.2c1,0.1,2.1,0.6,2.9-0.1c0.3-1,0.6-2.2,1.4-2.9
	c0.7-0.5,0.1-1.3,0.1-2c-0.2-0.6,0.3-1.2-0.1-1.8c-1.7-0.1-3.7-0.5-5.4-1.1c-2.3-0.8-4.5-1.4-6.3-2.9c-6.3-3.4-10.7-9.6-14.3-15.7
	c-1.7-3.2-2.9-6.6-4.1-10.1C83.7,162.9,83.4,160.8,82.8,158.9 M82.1,163.3c1.1,0.4,0.9,2,1.2,3c0,0.6-0.1,1.2-0.7,1.5
	c-0.5,0.4-1,0.4-1.7,0.3c-0.8-0.4-1-1.4-1.6-2c-0.6-0.1-1.2,0.9-1.7,0.2c-0.1-0.5-0.6-1-0.1-1.4C79.2,164.4,80.6,163.8,82.1,163.3
	 M82.1,165.7c0.1-0.8-0.9-0.4-1.2-0.3c-0.3,0.1-0.5,0.3-0.3,0.6c0.2,0.3,0.5,0.6,1,0.5C81.9,166.3,82.1,166.1,82.1,165.7
	 M81.7,169.4c0.8-0.3,2.1-1.8,2.6-0.2c0.1,1.1-1.3,0.7-1.9,1.2c-0.6,0.6-2.1,0.3-1.7,1.5c0.1,0.5,1,0.6,0.6,1
	c-1.3,0.3-1.4-1.2-1.9-1.9C78.8,169.5,81,169.9,81.7,169.4 M86.6,173.5c-1,1.7-2.3,3-3.4,4.8c-0.6-0.1-0.7-0.7-0.9-1.2
	c0.1-0.6,1-0.8,0.7-1.6c-0.1-0.3-0.2-0.7-0.6-0.8c-0.5,0.1-1.4,0.5-1.4-0.3c-0.1-0.4,0.2-0.7,0.5-0.7c1.7,0,3.4-0.6,5.1-0.3
	L86.6,173.5z M84.4,174.5c-0.1-0.3-0.6-0.1-0.9,0.1c0.1,0.1,0.1,0.4,0.4,0.5C84.1,174.9,84.4,174.8,84.4,174.5 M87,176.8
	c1,0,1.8,0.5,2.2,1.3c0.2,0.4,0.6,1,0.2,1.5c-0.3,0.1-0.2,0.3-0.5,0.2c-0.3-0.5-0.1-1.4-0.9-1.7c-0.7-0.2-1.3,0.1-1.8,0.4
	c-0.4,0.3-1,0.8-0.8,1.4c-0.1,0.9,1.2,1.1,1,1.9c-0.8,0.1-1.3-0.3-1.8-0.8c-0.6-0.5-0.6-1.4-0.3-2.1C84.7,177.7,85.7,177,87,176.8
	 M90.6,180.8c0.6,0.1,0.7,0.6,0.8,1l-0.1,0.4c-1.4,0.8-2.4,1.9-3.8,2.7c-0.6-0.1-0.7-0.5-0.8-1l0.1-0.3
	C88.1,182.9,89.3,181.7,90.6,180.8 M92.5,183.4c1,0.3,1.2,1.3,1.7,1.9c0.6,1,0.1,2.4-0.4,3.2c-0.6,0.5-1.1,0.9-1.9,1
	c-1.6-0.3-2.5-1.4-3.2-2.5c0.4-0.8,1.3-1.2,2-1.8L92.5,183.4 M93.4,186.4c0.1-0.5,0.2-1.3-0.5-1.3c-0.9,0.6-1.5,1.4-2.5,2.1
	c-0.3,0.3-0.2,0.8,0.1,0.9c0.4,0.3,1.1,0.3,1.5,0C92.8,187.8,93.1,187.1,93.4,186.4 M97.2,188.8c0.3,0,0.4,0.2,0.5,0.5
	c-0.3,1.7-1.2,3-1.4,4.8c-0.1,0.2-0.4,0.1-0.6,0.1c-0.4-0.2-0.9-0.8-0.6-1.4c0.3-0.3,0.2-0.7-0.1-1c-0.3-0.3-0.8-0.8-1.2-0.8
	c-0.4-0.2-1.5,1-1.7-0.1c0-0.5,0.6-0.3,1-0.5C94.5,190.1,95.6,189.3,97.2,188.8 M95.8,191.1c0.1-0.3,0.4-0.5,0.2-0.8l-0.8,0.3
	C95.3,190.9,95.5,191.2,95.8,191.1 M99.8,191c1.4,0.1,0.4,2.1,1.2,2.8c1-0.1,2.2-1,3-0.3c-0.3,1.6-1.7,2.8-2.1,4.3
	c-0.4,0.2-0.8-0.1-1.1-0.3c-0.2-1.1,1-1.5,0.9-2.5c-0.7-0.3-1.5,0.7-2,0.1c-0.3-0.3-0.1-1.2-0.7-1c-0.6,0.4-0.5,1.4-1.1,1.7
	c-0.3-0.1-0.7-0.3-0.8-0.7c0.2-0.6,0.9-1.1,1.2-1.7C98.9,192.6,99.2,191.6,99.8,191 M177,148.1c-0.4-0.9-1.3-1.2-2.1-1.7
	c-1.6-0.7-3.4-0.1-4.6,0.9c-3,2.9-3.3,7.6-4.7,11.5c-1.8,5.7-3,12-5.8,17.1c-2.7,4.9-5.9,9.2-10.5,12.5c-1.2,0.8-2.5,2-4,2.4
	c-3.4,2.2-7.7,3.4-12,4.1c-1,0-0.3,1.1-0.6,1.7c-0.1,0.6-0.6,1-0.6,1.7c0.8,1,1.4,2.1,1.9,3.4l0.3,0.2c4.1-0.5,7.9-1.5,11.5-3.1
	c5.5-2.3,10.1-6,14-9.9c0.8-0.8,1.4-1.8,2.3-2.6c3.9-6.2,7.2-13.1,9.2-20.6c1.2-2.6,1.7-5.6,2.8-8.3c0.3-2.3,1-4.1,1.6-6.1
	C176.1,150.3,176.7,149.2,177,148.1 M169.5,149.8c0.3-0.5,0.8-0.8,1.3-0.6c-0.1,0.8-1.2,1.4-0.4,2.1c0.5-0.1,0.7,0.3,0.9-0.3
	c0-0.3,0.3-0.6,0.7-0.5c0.3,0.1,0.8,0.1,0.7,0.6c-0.1,0.3-0.3,0.8,0.2,0.9c0.5,0,0.9,0,1-0.5c0.1-0.5-0.3-0.9,0.1-1.3
	c0.3-0.1,0.6,0.3,0.8,0.4c0.2,1-0.3,1.9-0.5,2.9c-0.1,0.4-0.6,0.3-1,0.2c-1.3-0.3-2.7-1-4-1.2C168.8,151.8,169.5,150.7,169.5,149.8
	 M168.6,154c0.2-0.3,1-0.3,1.1,0.1c-0.2,0.4-0.8,0.8-0.6,1.4c1.1,0.6,2.5,0.8,3.7,1c0.4,0.4,0.1,1-0.1,1.4l-0.4,0.1
	c-1-0.4-2.1-0.9-3.4-1c-0.7,0.3-0.1,1.2-0.4,1.8c-0.4,0.1-0.6-0.2-0.9-0.4l-0.1-0.6L168.6,154 M171.4,160.1c0.3-0.1,0.6,0.1,0.6,0.4
	c-0.2,0.5-0.1,1.3-0.8,1.2c-0.3-0.1-0.6,0.2-0.7,0.5c0,0.5-0.1,0.6,0.1,1c0.8,0.2,0.5,1.2,0.2,1.7c-0.3,0.3-0.6,0-0.8-0.3l-3.4-3.3
	c-0.1-0.1-0.1-0.3,0-0.6C168.1,160.3,169.9,160.5,171.4,160.1 M169.5,161.6c-0.3-0.1-0.8-0.1-1,0.2c0.2,0.3,0.5,0.6,0.8,0.6
	C169.5,162.1,169.7,161.9,169.5,161.6 M166.6,163.4c0.3,0,0.4,0.2,0.5,0.4c-0.2,0.3-0.8,0.6-0.6,1c1,0.6,2.1,1.1,3.2,1.3
	c0.4,0.3,0.2,1,0,1.4c-0.4,0.4-1.2-0.1-1.7-0.3l-2.1-0.7c-0.3,0.3-0.3,0.8-0.4,1.3c-0.4,0.1-0.6-0.3-0.7-0.5l-0.1-0.4l1.1-3.2
	C166.1,163.5,166.4,163.4,166.6,163.4 M165,169.1c0.6,0,1.1,0.1,1.4,0.6c0.3,0.3,0,1.4,0.8,1.2c0.6-0.1,1.2-0.4,1.8-0.2
	c-0.1,0.9-0.7,1.2-1.5,1.4c-0.2,0-0.4,0.1-0.5,0.3c0.2,0.4,1,0.3,0.9,1c-0.2,0.4-0.2,1-0.7,1.1c-0.1,0.1-0.3-0.1-0.4-0.2
	c-1-0.6-2.5-1.2-3.6-1.6c-0.2-0.8,0.3-1.6,0.6-2.4C163.9,169.7,164.4,169.2,165,169.1 M165.5,171.5c0.1-0.4-0.1-0.8-0.5-0.8
	c-0.2,0.1-0.4,0.3-0.5,0.6c0,0.3,0.2,0.5,0.5,0.5C165.2,171.8,165.5,171.7,165.5,171.5 M162.9,174.4c-0.3,0.6-1.5,0.7-1,1.6
	c0.3,0.1,1,0.6,1.2-0.2c-0.1-0.3,0.1-0.7,0.3-0.7c0.3,0.1,0.8,0.2,1.1,0.6c0,0.6-0.7,0.9-0.4,1.3c0.3,0.1,0.6,0.3,0.9,0.1
	c0.3-0.5,0.3-1.2,0.6-1.7c0.4-0.1,0.8,0.3,0.9,0.6v0.6c-0.6,0.8-1,1.8-1.7,2.6c-1.2-0.7-2.5-1.4-3.9-2c-0.4-0.1-0.3-0.8-0.2-1
	c0.7-0.8,0.8-2.5,2.2-2L162.9,174.4z M160,178.7c0.5-0.1,0.8,0.1,1.2,0.5c-0.1,1.5,1.9,0.1,2.1,1.4c0.8,1.5-0.7,2.8-1.3,3.9
	c-0.2,0.2-0.4-0.1-0.6-0.1c-1-1.1-2.5-1.7-3.6-2.7C158,180.3,158.9,179.2,160,178.7 M160.4,180.6c-0.2-0.7-0.7-0.1-0.9,0.2
	c-0.3,0.3,0.2,0.6,0.5,0.6C160.2,181,160.4,180.9,160.4,180.6 M162.3,182.1c0-0.3-0.1-0.6-0.4-0.6c-0.4,0-0.6,0.3-0.8,0.7
	c0.1,0.3,0.4,0.5,0.8,0.6C162.2,182.6,162.2,182.3,162.3,182.1 M160.3,186.3c0.1,0.5-0.3,1-0.7,1.2l-0.3,0.1c-1-1-2.1-2.1-3.4-2.8
	c-0.5-0.3-0.1-0.8,0.1-1.1c0.6-0.8,1.1,0.1,1.7,0.3L160.3,186.3z M152.5,187.9c-0.1-0.4,0.5-1.2,1.1-1c0.7,0.9,1.6,1.9,2.5,2.2
	c0.8-0.1,0.5-1.3,1.4-1.2c1.2,1.5-0.8,2.1-1.4,3.1c-0.2,0.3-0.6,0.2-0.7,0C154.6,189.8,153.3,188.9,152.5,187.9 M146.8,191.7
	c0.7-0.1,1.2,0.1,1.4,0.7c-0.4,1.4,1.4,1.2,1.4,2.3c-0.1,1.7-2,2-3.1,2.8c-0.4,0.1-0.5-0.3-0.6-0.6c-0.4-1.2-0.7-2.4-1.5-3.2
	c-0.6-0.1-0.8,0.5-0.8,1l-0.3,3.9c-0.1,0.3-0.4,0.5-0.7,0.3c-1.1-1.2-2.1-2.3-3.2-3.6c0-0.6,0.8-0.5,1.1-0.8c0.6,0,0.3,0.7,0.6,0.9
	c0.5,0.3,0.7,1.2,1.4,1c0.4-1-0.3-1.9,0-2.8C144,192.9,145.4,192.4,146.8,191.7 M146.9,193.1c0.1-0.3-0.2-0.3-0.4-0.3
	c-0.1,0.1-0.5,0.1-0.5,0.4c0.1,0.2,0.2,0.5,0.4,0.5C146.6,193.6,146.8,193.3,146.9,193.1 M148.2,194.7c-0.1-0.7-1.1-0.7-1.4-0.3
	c-0.2,0.6,0.3,1,0.4,1.5c0.2,0.3,0.6,0.1,0.8-0.1C148.2,195.6,148.5,195.2,148.2,194.7 M137.3,195.1c0.5,0.1,0.7,0.3,0.7,0.8
	c-0.3,0.6-1.2-0.2-1.5,0.4c0,1,1.4,0.7,2,1.2c0.5,0.3,0.9,0.9,0.8,1.5c-0.3,1-1.7,1-2.5,1.4c-0.5,0-0.6-0.3-0.7-0.7
	c0.3-0.6,1-0.1,1.4-0.6c0.1-0.8-1-0.7-1.4-1.2c-0.6-0.1-0.9-0.4-1.2-0.8c-0.1-0.4,0-0.9,0.2-1.2
	C135.8,195.4,136.6,195.4,137.3,195.1 M122.3,85c-1.1-2.5-2.5-4.7-4.7-6.2l-0.1,0.1c0.6,3,1.3,6.2,3.7,8.3c0.3,0.5,0.8,0.2,1.2,0.1
	C123.3,86.6,122.3,85.7,122.3,85 M116.5,81.7c-0.4-0.2-0.9-0.6-1.3-0.5c0.6,1,1.2,2.1,2.2,2.7L116.5,81.7 M122.7,115
	c-0.3-1.3-1.7-2.3-2.8-3c-0.2,0.1-0.3,0.3-0.2,0.5l1.5,2.4c0.6,1.4,0.7,3.4,2.5,3.9c0.3,0,0.4-0.2,0.3-0.5
	C123.4,117.5,122.8,116.2,122.7,115 M104.9,107.3l-0.3,2.1c-0.1,0.5,0.1,0.8-0.1,1.4l-1.2,0.1c-0.8,0.7-1.7,1.6-1.8,2.7
	c0.1,0.8,0.1,1.6,0.6,2.3c0.3,0.7,1.2,0.4,1.7,0.9c-0.1,0.2-0.3,0.3-0.6,0.3c-0.2,0.3,0.1,0.4,0.1,0.6c1,0.4,1.1-0.6,1.9-1
	c1.5-0.7-0.3-1.9,0.1-3.2c0.2-1.1-0.9-1.3-1.6-1.8c-0.2-0.1-0.2-0.4,0-0.5c1.6,0.1,1.9,1.7,2.8,2.6c0.3,1,0.3,2.3,0.1,3.3
	c0.1,0.2,0.4,0.3,0.7,0.1c0.1-0.8,0.1-1.6-0.1-2.3c-0.3-1.4-1-2.8-2.1-3.7l0.3-0.3c-0.1-1.2-0.1-2.5-0.4-3.6L104.9,107.3z
	 M102.8,112.4c0.6,0.1,1.2,0.1,1.7,0.6c0.1,0.4-0.3,0.6-0.6,0.6c-0.5-0.1-0.9-0.2-1.2-0.6C102.7,112.8,102.6,112.6,102.8,112.4
	 M102.4,113.8c0.6,0.2,1.4,0.1,2.1,0.4c0.1,0.1,0.2,0.4,0.1,0.5c-0.6,0.2-1.3,0.3-1.8-0.1C102.5,114.4,102,114.1,102.4,113.8
	 M104.1,115.4c0.1,0.1,0.2,0.2,0.1,0.4c-0.3,0.3-0.9,0.1-1.2,0.1c-0.2-0.1-0.7-0.2-0.5-0.6C103.1,115.2,103.5,115.5,104.1,115.4
	 M106.2,119.7c-0.3-0.8-1.4-0.8-2.1-1c-0.3,0.1-0.2,0.4-0.3,0.6l0.4,5.2c0.4,2.9,0.3,5.8,1.1,8.5c1.2,1.3,0.9,3.4,1.3,5.1
	c0.3,2.7,1,5.5,0.6,8.1c0.2,4,1,7.6,1.7,11.4c0.8,5.6,2.2,10.8,3.9,15.8l0.2,0.1c-1.5-11.8-2.9-23.9-4.5-35.6
	c-0.7-5.4-1.4-10.9-2.1-16.3h0.1L106.2,119.7 M127.2,132.6c-1.4,0.8-2.9,1.7-4.8,1.4c-0.3,0.1-0.1,0.3,0.1,0.6
	c1.1,0.8,2.8,0.2,3.9-0.1c0.3,0,0.2,0.3,0.1,0.4c-0.4,0.8-1.3,1.2-2.2,1.2c-0.2,0.2,0.1,0.5,0.3,0.6c0.7,0.2,1.3-0.1,1.9-0.4
	c0.4-0.5,1.1-1,0.8-1.9c-0.5-0.6,0.8-1.1,0.7-1.7L127.2,132.6z M129.2,151.7c0.2-0.6,0.9-1.3,0.3-1.8c-0.8,0.4-1.2,1.3-1.9,1.8
	c-0.2-0.3-0.1-0.9-0.3-1.2c-0.2-0.2-0.6,0-0.8,0.1c-0.1,1.7,0.3,3.4,1,5c0.3,0.3,0.6-0.1,1-0.1c-0.1-0.9-0.8-2-0.8-3
	C128.3,152.2,128.7,152,129.2,151.7 M120.4,151.5c-0.7-0.1-1-0.4-1.7-0.3c-0.4,1.4-0.3,3.2,0,4.5c0.3,0.7,1.1,0.6,1.7,0.6
	c0.3-0.4,1.2-0.6,1.2-1.1c-0.6-0.3-1.2,0.1-1.7,0.3c-0.1-0.8-1.2-1.7-0.1-2.3c-0.9-1.9,1.9-0.4,1.9-1.8
	C121.2,151.1,120.9,151.6,120.4,151.5 M128.8,170.3c-0.3-0.8-0.3-2.2-1.6-1.5c-0.7,0.1-0.3,1-0.4,1.5c0.3,0.6,1.1,0.2,1.7,0.6
	C128.7,170.9,128.7,170.6,128.8,170.3 M130.5,171.6c-0.8-0.3-1.3,0.8-2.1,0.8c-0.6,0.1-0.8-0.6-1.2-0.8c-0.2,0.6-0.8,1.4-0.6,2.2
	c1.2,0.1,2.3,0.4,3.4,0.8c0.6-0.3,1.4-0.3,1.7-1.2L130.5,171.6z M129.8,172.9c0.3-0.3,0.9-0.1,1.1,0.3c0.1,0.6-0.6,0.4-0.9,0.3
	C129.9,173.4,129.6,173.2,129.8,172.9 M120.8,175.1c-0.6-0.2-1.2-0.6-1.9-0.4c-0.3,1.4-1.6,2.6-2.5,3.7c-0.1,0.3-0.3,0.7,0.2,0.7
	c0.4-0.1,0.6-0.6,0.8-0.9c0.5-1.2,1.6-0.2,2.3,0.1c0.8,0,1.4-0.2,1.8-0.9c0.3-0.7-0.1-1.4-0.3-1.9L120.8,175.1z M119.5,176.2
	c0.5-0.3,1.3-0.3,1.6,0.3c0.1,0.6-0.4,0.8-0.7,1c-0.6,0.2-0.8-0.3-1-0.6C119.4,176.5,119.2,176.5,119.5,176.2 M112.1,122.3
	c-1.8-0.1-3-1.3-4.4-2l-0.1,0.3c0.2,2.9,0.8,5.6,1,8.5c1.5,8.7,2.4,18.2,3.8,27.1c0.8,6.9,1.4,13.7,2.5,20.4l0.3,0.3
	c0.7-0.4,0.7-1.1,1.2-1.7c0.9-1,0.8-2.8,1.4-4l-0.3-8.7c0-2.5-1.3-5-0.3-7.5c-0.6-1.9,0.3-4.1-0.6-5.8c-1.2-3-0.6-7.2-2-10.1
	c-0.1-1.5-0.1-3.5,0-5.1c-0.3-2.1-0.6-4.4-0.1-6.5c0.1-1,0.5-2.1,0.5-3.1c-0.3-0.1-0.6-0.2-0.9-0.2
	C112.8,124.4,112.6,123.1,112.1,122.3 M128.1,90.8c-0.7-1.2-1.9-2.3-3.4-2.5c-1.2,0.3-2.6,0.8-3.6,1.5c-0.4,2.1-1,4.3-0.6,6.5
	c-0.6,2.1-0.6,5-3.1,5.3c0.1,0.6,0.9,0,1.4,0.1c0.7,0.5,0.8,1.8,0.9,2.7c0.4,1,0.9,2.2,1.7,3c0.7,0.8,1.5,1.2,2.5,1.4l1.7,0.1
	l1.8-0.8c0.7-0.7,1-1.5,1.5-2.3c0.3-1.2,0.2-2.4,0.3-3.4c-0.2-0.5,0.4-0.7,0.1-1.1c-0.7-0.3-1.1-0.9-1.5-1.4
	c-1.1-0.6-0.3-1.7-0.4-2.5c0.1-1.2,1-2.2,0.6-3.6C128.5,92.9,128.5,91.7,128.1,90.8 M125.7,90c0.6,0.1,1.2,0.4,1.4,1
	c0.2,0.4,0.3,1,0.1,1.5c-0.6,0.6-1.5-0.3-1.8,0.5c-0.4,0.9,0.4,2.3-0.8,2.6c0.1,0.3,0.6,0.6,0.3,1c-0.1,0.1-0.6,0.1-0.6,0.3
	c0.6,0.3,0.5,1.1,0.6,1.7c-0.3,0.7-1.2,0.1-1.8,0.3c-0.1,1,1.6,0.9,1.2,2.1c-0.6,0.6-1.4-0.1-1.9-0.3l-0.6-0.6
	c0.3-1.2-0.1-2.8,0.3-4c0.4-1.2-1.2-2-0.1-2.8c0.6,0.1,1.5,0.6,2.1,0c0.1-0.1,0.3-0.4,0.1-0.6c-0.8-0.2-1.7-0.2-2.3-0.6
	c0-0.7-0.2-1.6,0.5-2C123.7,90,124.8,90.3,125.7,90 M127.3,93.9c0.5-0.1,0.4,0.4,0.3,0.7c-0.2,0.3-0.3,0.6-0.6,0.8
	c-0.5,0-0.3-0.5-0.5-0.8C126.5,94,127,94,127.3,93.9 M126,100.4c0.2,0,0.3,0.1,0.2,0.3l-0.3,0.1C125.8,100.8,125.8,100.6,126,100.4
	 M121,101.7c0.6,0,1,0.4,1.5,0.6c0.9,0.2,2,0.6,2.8,0.6l2.1-1.2c0.4-0.1,0.6,0.3,0.6,0.6c-0.1,2.1-0.1,4.6-2.1,5.3
	c-0.9,0.2-1.7,0.1-2.4,0c-0.6-0.6-1.4-0.8-1.9-1.6c-0.3-0.8-0.7-1.7-0.4-2.8C121,102.9,120.8,102.2,121,101.7 M126.7,103.3
	c-0.4,0.5-0.9,1.2-1.6,1.4c-0.9-0.1-1.7-0.4-2.3-1.2c-0.1-0.5,0.7-0.3,1-0.2c1,0.6,1.9-0.6,2.9-0.4V103.3z M98.7,76.6
	c-4.5-0.2-8.9,0.1-13.5,0c-0.6,0-1.4-0.1-1.8,0.4c-0.1,7.4-0.1,15.1,0.6,22.4c0.3,4.1,0.3,8.2,0.8,12.2c0.1,3.2,0.8,5.9,1.2,9
	c1.9,14.2,6.1,26.8,11.3,39.1c3.6,7.4,7.6,14.6,12.7,20.9c3.9,4.6,8.2,8.6,13,12.5c1,0.3,1.4-0.4,2.1-0.8c4.8-3.7,9-8,12.6-12.8
	c6.1-7.7,11.2-16.8,15.1-26.3c1.7-4.5,3.7-8.7,5-13.3c1.4-4.9,3-9.6,4.1-14.8c3.2-15.1,5.2-31.4,4.1-47.8l-0.2-0.3
	c-10.3,0-20.6,0.1-31.2-0.1c-5.4,0.1-11.2-0.1-16.9,0.1l-0.1,0.1l1,0.6c2.8,2.1,4.3,5.2,5.6,8.2c1,0.1,2.1,0.4,3,0.8
	c1.4,0.7,2.2,2.2,2.6,3.8c0.6,2.4-0.6,5.1,0.1,7.6c-0.1,1.9,1.7,2.9,3,3.5c2.2,1,2.8,3.2,3.1,5.6c0.8,2.7,0.6,6,1.2,8.8
	c1.2,1.5,0.6,3.9,0,5.5c0.3,1.2,0.1,2.8,0.1,3.8c0.5-0.6,0.4-1.6,0.8-2.3c0.3-1.6,1.4-3.5,0.8-5.2c-0.2-0.6,0.3-0.7,0.1-1.2
	c0.3-0.3,0.4-0.7,0.3-1.2c0.4-0.7,0.3-1.6,0.7-2.3c0-0.8,0.1-1.9,0.6-2.5c0.4-0.1,0.8,0,1.1-0.3c0.6,0.3,0.9,0.7,1.1,1.3
	c-0.5,0.5-0.2,1.4-0.7,1.9c0.1,0.2,0.3,0.6,0,0.8c0.1,1.4-0.9,2.4-1,3.8c-0.6,0.3-0.8,0.8-1.2,1.4c-0.2,0.4,0.1,1-0.3,1.2l-1.2,4.5
	c-0.4,2.5-2.4,5.2-1,7.9c0.2,0.8,0.7,1.6,0.3,2.3c0.1,1.9-1.5,2.4-2.4,3.6c-1.9,0.3-1.2,2.5-2,3.7c-0.1,0.6-0.8,1.7,0.1,2
	c0.1,0.6-0.1,1-0.6,1.3c-0.5-0.5-0.1-1.4-0.4-2.1c0.1-1.7,1-3.2,0.9-5l1.1-1c-0.1-0.6-0.1-1.4-0.6-1.5c-0.4,0.6-0.2,1.6-0.8,1.9
	l-0.2-0.1l-0.3-3.1c0.1-1.2,0.8-2.1,1.4-3l-0.1-2.6c-0.3-1.4-1-2.6-0.6-4.2c-0.2-1.9,1.3-3.1,1.6-4.8c0.1-0.5,0.8-0.3,1.2-0.2
	c0.1-0.3-0.1-0.5-0.1-0.7c-0.7-0.6-1.7,0.1-2.3-0.1c-0.4-0.7,0.3-1.4,0.7-1.9c0.5-1-0.9-0.8-0.8-1.9c0.2-0.5,0.8-0.3,1.2-0.5
	c0.2-0.3-0.1-0.6-0.4-0.7c-2.3-3,0.8-8.5-2.3-10.8c-0.6,0.6,0.1,1.3,0,2.1c0.5,2.3-1,4.1-0.5,6.5c0.1,2.3-0.2,4.6,0.3,6.7
	c-0.2,1-0.3,2.1-0.9,2.8c-0.1,0.2-0.5,0.1-0.4-0.3c0.5-1.9-0.1-4-0.1-5.6c-0.3-0.6,0.3-1.2-0.2-1.6c-0.8,0.4-0.6,1.6-1,2.3h-0.3
	l-0.4-1.9h-0.2c-0.3,0.1-0.2,0.5-0.3,0.7c-0.5,1.8-0.2,4.2-1.7,5.4c-1,1-2.5,0-3.7,0.1c-2.7-0.6-1.7-4-2.5-6.1c-0.8-0.4-0.1,1-0.8,1
	c-0.6-0.4-1-1.1-1-1.9c-0.1-0.3-0.1-0.9,0.5-0.9c0.1-1-0.6-1.5-1.2-2.1c-1.2-1.7-0.4-3.8,0-5.6l-0.2-0.4c-0.6,0-0.8,0.8-1,1.2
	c-0.4,0.3-0.3,1-0.7,1.4c-0.4,0.3-0.6-0.3-1.1-0.1c0,1.4,0.8,2.3,1.2,3.6c0.1,1,0.3,2.1,0.1,3.2c-0.1,0.3-0.3,0.5-0.6,0.6
	c-0.9-0.4-1.6-1.2-2.7-1c-0.1,0.6-0.3,1.1-0.3,1.7c1.1,0.8,2.1,1.6,2.5,2.9c-0.1,1.2-0.1,2.9-1.4,3.3c0.1,0.4,0.4,1,0.8,1.2l1.4,0.1
	c0.3-0.1,0.7-0.2,0.9,0.2c-0.5,1.2-0.2,2.8,0.8,3.7c0.3,0.8-0.1,2,0.4,2.7c0.7-0.5,0.4-1.6,0.8-2.3c0.1-0.6,0.2-1.4,0.9-1.6
	c1,0.8,0.3,2.6,1.2,3.5c0.4-0.3,0.1-1,0.2-1.5c0.1-0.7-0.1-1.7,0.7-1.9l2.1,1.9c0.3,0.3,0.4,0.7,0.8,0.7c0.3-1.3-1.2-1.9-0.8-3.2
	c1.3,0,2.8,0.1,4.1,0.1c0.5,0.1,1.3-0.1,1.5,0.4c-0.3,0.9-0.6,2.1-1,3l0.1,0.1c0.8-0.2,1.2-1.1,1.4-1.8c0.3-0.4,0.6-1,1.2-1.1
	c0.6,1-0.1,2.1-0.4,3c0,0.3,0.3,0.3,0.6,0.3c0.9,0.3,0.8,1.6,0.9,2.5c-0.3,1.9,0.1,3.6,0.2,5.6c-0.1,0.5-0.4,0.7-0.9,0.8
	c-2-0.2-4,0.2-6.1,0.1c-2.3-0.3-4.7,0.1-7,0.1c-0.8,0.3-1.7,0.5-2.4,1c-0.3,0.9,0.7,1.2,0.5,2c0.3,0.5,0.8-0.3,1.2-0.3
	c1.5-0.2,3.6-0.8,5,0.2c1,0.4,1.5-0.7,2.5-0.3c0.7,1.3,1.3,2.8,1.9,4.3l0.2,0.1c0.3-1.7,0.8-3.4,2.2-4.5c0.6-0.3,1.6-0.3,2.1,0.1
	c0.9,0.8-0.1,2-0.3,2.8c0.2,1.8-1.8,2.5-1,4.3c0.3,0.4,0.6,1,1.2,1c0.6,0,0.8-0.3,0.9-0.8c0.5-0.4,0.1-1.3,0.6-1.7
	c0.5,0.3,0.4,0.9,0.4,1.4c-1.2,1.3-0.8,3.8-0.6,5.6l-0.9,3.5c0.5,2.3-0.1,4.7-0.1,7.1c0.1,1.9-0.9,3.7-0.1,5.4
	c0.1,1.9,1.7,3.4,3.3,4.1c1,0.8,2.6,0.9,3.3,2.1c0.3,0.6,0,1.1-0.5,1.6c-1.9,1.2-5.2,0.8-7-0.4c-1.2-0.8-3.4-0.3-4.6-0.9
	c-1.4-1-0.6-3-0.7-4.5c0.9-3.2,0.8-7-0.1-10l-0.1-4.7l0.1-1.3c0.4-1.2,0.2-2.6-0.2-3.9c0-3.2,0.4-5.9-0.3-8.9l-0.2-0.1
	c-0.9,3.2,0.1,7.1-0.3,10.5c0.1,1.1-0.6,1.8-0.2,2.8c-0.1,2.3,0.6,6.1-0.6,8c-0.4,2.3,0.2,4-0.5,6.1c-0.2,1.7,1.1,2.8,0.7,4.5
	c0.1,1.3,0.7,2.8-0.2,3.7c-1.5,0.8-3,1.8-4.7,2.5c-1.1,1-1.9,1.9-3.4,2.1c-0.8,0.1-1.4,0.5-2.3,0.6c-0.5-0.1-1-0.4-1.2-0.8
	c-0.6-0.6-0.1-1.6,0.1-2.2c0.5-0.8,1.5-1.3,1.4-2.2c-1.7-2-2.7-4.9-3.6-7.3c-1.7-5.8-3-11.6-4-17.6c0.1-0.3-0.3-0.3-0.1-0.6
	c-1.1-7.4-2.3-14.9-3.1-22.4c-0.3-3.9-0.4-7.9-0.8-11.7c-0.8-1.5-1.2-3-1.7-4.8c0.3-1.4,1.4-2.3,2.3-3.2c0.4-3.2,1-6.5,1.9-9.6
	c0.1-0.4,0.4-0.8,1-0.8c0.3,0.1,0.3,0.7,0.3,1c-0.8,3.9,0.7,7.6,0.9,11.4c0.8,0.6,0.8,1.7,1.6,2.2c0.7,0.1,1.4,0.3,2.1,0.4l0.1-0.9
	c0.3-3.1,1.2-6.1,1.4-9.4c0.3-2.6,3.3-2.8,5-4.3c1.9-1.9,0.3-5.2,1.3-7.6c0.1-1.1-0.2-2.3,0.5-3.2c0.3-0.8,1-1,1.2-1.9
	c-2-1.5-4.1-3.2-5.5-5.5c-0.3-1-1.4-1.9-0.7-3c0.9-0.3,1.7,0.8,2.6,1l0.1-0.4c-0.2-0.9-0.3-2.1,0.1-2.9l-0.7-0.1L98.7,76.6
	 M113.3,114.8c0.5,0,1,0.2,1.1,0.6c0,0.2,0.2,0.4,0.1,0.8c-0.6,0.1-1.1-0.2-1.5-0.8C113,115.2,113.1,115,113.3,114.8 M117.9,116.5
	c0.9,1.3,1.7,2.7,1.9,4.3c-0.6,0.3-1,0.2-1.4-0.3c-0.9-1-1.3-2.9-0.8-4.3L117.9,116.5z M131.3,146c0.3,0.1,0.7,0.1,0.8,0.4
	c0.1,0.3-0.1,0.6-0.3,0.8c-0.5,0.2-0.7-0.1-0.9-0.4C130.7,146.4,131,146.1,131.3,146 M101.4,78.3c1,0.2,1.4,1.4,1.6,2.3
	c0.7,0.8,0.9,1.9,1.4,2.8c0.2,0.2,0.6,0.2,0.9,0.2c1.6,0.1,3.4,0.7,5,0.9c0.3,0.1,0.4,0.6,0.3,0.8c-1.2,1.4-2.2,2.8-3.7,3.9
	c-0.4,1,0.5,1.9,0.5,2.8l0.3,3c-0.1,0.2-0.3,0.6-0.6,0.4c-1.8-0.5-3.6-1.4-5.2-2.3c-1.9,0.8-3.5,2.1-5.5,2.7
	c-0.3,0.1-0.3-0.4-0.4-0.7c0.1-1.8,0.3-3.6,0.6-5.3c-0.3-0.6-1.2-1-1.7-1.6c-1-1-2.1-1.7-2.9-2.5c-0.2-0.4,0.3-0.6,0.5-0.8
	c1.8-0.6,3.7-0.8,5.5-1.4C99,81.8,99.8,79.7,101.4,78.3 M121.4,122.3c1.1-0.3,2.3,0.1,3.4,0c0.3,0.3-0.2,0.6,0.1,0.8
	c1.9,0.3,3.9-0.1,5.8,0.5l0.2,0.2l-0.3,0.3c-3,0.4-6.3,0.1-9.2-0.3c-0.2,0-0.4-0.3-0.6-0.1c-1.4-0.5-2.4,0.6-3.6,0.1
	c0.2-1.5,2.4-0.5,3.6-0.9C121.3,122.9,121.1,122.4,121.4,122.3 M178.9,151.4c-0.1-0.6-0.8-0.8-1-0.1c-0.2,0.7-1,1.4-0.3,2.1
	c0.3,0.2,0.8,0.1,1.1-0.2C178.7,152.6,179.1,151.9,178.9,151.4 M85.3,151.3c-2.3-0.8-2.3,1.6-3.8,2.3c-0.6,0.6-2.1,0.3-2,1.5
	c0.1,0.4,0.4,0.8,0.8,0.7c2.1-0.5,3.4,0.8,5,1.5c0.7,0.1,1.2-0.3,1.4-1c0.4-1.4,0.3-3.2-0.6-4.3L85.3,151.3z"/>
</svg>
